{
	"asset":{
		"generator":"Khronos glTF Blender I/O v4.1.63",
		"version":"2.0"
	},
	"scene":0,
	"scenes":[
		{
			"name":"Medieval",
			"nodes":[
				0,
				1,
				2,
				3,
				4
			]
		}
	],
	"nodes":[
		{
			"mesh":0,
			"name":"Level.008"
		},
		{
			"mesh":1,
			"name":"NavMesh.005",
			"translation":[
				0,
				0.05312848091125488,
				0
			]
		},
		{
			"mesh":2,
			"name":"Cube.007-convcol.001",
			"translation":[
				-2.727604389190674,
				1.4430522918701172,
				1.7929095029830933
			]
		},
		{
			"mesh":3,
			"name":"Cube.009-convcol.001",
			"rotation":[
				0,
				0.7071068286895752,
				0,
				0.7071068286895752
			],
			"translation":[
				4.793237209320068,
				1.4430522918701172,
				-0.9820561408996582
			]
		},
		{
			"mesh":4,
			"name":"Cube.007-convcol.002",
			"rotation":[
				0,
				1,
				0,
				1.6292068494294654e-07
			],
			"translation":[
				-0.6928768157958984,
				1.4430522918701172,
				-1.7969670295715332
			]
		}
	],
	"materials":[
		{
			"alphaMode":"BLEND",
			"doubleSided":true,
			"name":"StoneBricksSplitface001_1K.001",
			"normalTexture":{
				"index":0
			},
			"pbrMetallicRoughness":{
				"baseColorTexture":{
					"index":1
				},
				"metallicFactor":0,
				"metallicRoughnessTexture":{
					"index":2
				}
			}
		},
		{
			"alphaMode":"BLEND",
			"doubleSided":true,
			"name":"ConcreteBlocksPavingSquareStack001_1K.001",
			"normalTexture":{
				"index":3
			},
			"pbrMetallicRoughness":{
				"baseColorTexture":{
					"index":4
				},
				"metallicFactor":0,
				"metallicRoughnessTexture":{
					"index":5
				}
			}
		},
		{
			"doubleSided":true,
			"name":"Material.001",
			"pbrMetallicRoughness":{}
		}
	],
	"meshes":[
		{
			"name":"Cube.017",
			"primitives":[
				{
					"attributes":{
						"POSITION":0,
						"NORMAL":1,
						"TEXCOORD_0":2
					},
					"indices":3,
					"material":0
				},
				{
					"attributes":{
						"POSITION":4,
						"NORMAL":5,
						"TEXCOORD_0":6
					},
					"indices":7,
					"material":1
				}
			]
		},
		{
			"name":"Cube.018",
			"primitives":[
				{
					"attributes":{
						"POSITION":8,
						"NORMAL":9,
						"TEXCOORD_0":10
					},
					"indices":11
				}
			]
		},
		{
			"name":"Cube.019",
			"primitives":[
				{
					"attributes":{
						"POSITION":12,
						"NORMAL":13,
						"TEXCOORD_0":14
					},
					"indices":15,
					"material":0
				},
				{
					"attributes":{
						"POSITION":16,
						"NORMAL":17,
						"TEXCOORD_0":18
					},
					"indices":19,
					"material":2
				}
			]
		},
		{
			"name":"Cube.020",
			"primitives":[
				{
					"attributes":{
						"POSITION":20,
						"NORMAL":21,
						"TEXCOORD_0":22
					},
					"indices":15,
					"material":0
				},
				{
					"attributes":{
						"POSITION":23,
						"NORMAL":24,
						"TEXCOORD_0":25
					},
					"indices":19,
					"material":2
				}
			]
		},
		{
			"name":"Cube.025",
			"primitives":[
				{
					"attributes":{
						"POSITION":26,
						"NORMAL":27,
						"TEXCOORD_0":28
					},
					"indices":15,
					"material":0
				},
				{
					"attributes":{
						"POSITION":29,
						"NORMAL":30,
						"TEXCOORD_0":31
					},
					"indices":19,
					"material":2
				}
			]
		}
	],
	"textures":[
		{
			"sampler":0,
			"source":0
		},
		{
			"sampler":0,
			"source":1
		},
		{
			"sampler":0,
			"source":2
		},
		{
			"sampler":0,
			"source":3
		},
		{
			"sampler":0,
			"source":4
		},
		{
			"sampler":0,
			"source":5
		}
	],
	"images":[
		{
			"mimeType":"image/png",
			"name":"Middle Ages Wall Normal",
			"uri":"Middle%20Ages%20Wall%20Normal.png"
		},
		{
			"mimeType":"image/png",
			"name":"Middle Ages Wall Color",
			"uri":"Middle%20Ages%20Wall%20Color.png"
		},
		{
			"mimeType":"image/png",
			"name":"Middle Ages Wall Roughness",
			"uri":"Middle%20Ages%20Wall%20Roughness.png"
		},
		{
			"mimeType":"image/png",
			"name":"Middle Ages Floor Normal",
			"uri":"Middle%20Ages%20Floor%20Normal.png"
		},
		{
			"mimeType":"image/png",
			"name":"Middle Ages Floor Color",
			"uri":"Middle%20Ages%20Floor%20Color.png"
		},
		{
			"mimeType":"image/png",
			"name":"Middle Ages Floor Roughness",
			"uri":"Middle%20Ages%20Floor%20Roughness.png"
		}
	],
	"accessors":[
		{
			"bufferView":0,
			"componentType":5126,
			"count":16,
			"max":[
				6.82551383972168,
				4,
				3.798797369003296
			],
			"min":[
				-6.82551383972168,
				0,
				-3.798797369003296
			],
			"type":"VEC3"
		},
		{
			"bufferView":1,
			"componentType":5126,
			"count":16,
			"type":"VEC3"
		},
		{
			"bufferView":2,
			"componentType":5126,
			"count":16,
			"type":"VEC2"
		},
		{
			"bufferView":3,
			"componentType":5123,
			"count":24,
			"type":"SCALAR"
		},
		{
			"bufferView":4,
			"componentType":5126,
			"count":4,
			"max":[
				5.93770170211792,
				0,
				2.996234893798828
			],
			"min":[
				-5.93770170211792,
				0,
				-2.996234893798828
			],
			"type":"VEC3"
		},
		{
			"bufferView":5,
			"componentType":5126,
			"count":4,
			"type":"VEC3"
		},
		{
			"bufferView":6,
			"componentType":5126,
			"count":4,
			"type":"VEC2"
		},
		{
			"bufferView":7,
			"componentType":5123,
			"count":6,
			"type":"SCALAR"
		},
		{
			"bufferView":8,
			"componentType":5126,
			"count":16,
			"max":[
				5.93770170211792,
				0,
				2.996234893798828
			],
			"min":[
				-5.93770170211792,
				0,
				-2.996234893798828
			],
			"type":"VEC3"
		},
		{
			"bufferView":9,
			"componentType":5126,
			"count":16,
			"type":"VEC3"
		},
		{
			"bufferView":10,
			"componentType":5126,
			"count":16,
			"type":"VEC2"
		},
		{
			"bufferView":11,
			"componentType":5123,
			"count":42,
			"type":"SCALAR"
		},
		{
			"bufferView":12,
			"componentType":5126,
			"count":20,
			"max":[
				3.9348442554473877,
				2.556947708129883,
				2.0059022903442383
			],
			"min":[
				-0.27127939462661743,
				-1.7855141162872314,
				0.3362855911254883
			],
			"type":"VEC3"
		},
		{
			"bufferView":13,
			"componentType":5126,
			"count":20,
			"type":"VEC3"
		},
		{
			"bufferView":14,
			"componentType":5126,
			"count":20,
			"type":"VEC2"
		},
		{
			"bufferView":15,
			"componentType":5123,
			"count":30,
			"type":"SCALAR"
		},
		{
			"bufferView":16,
			"componentType":5126,
			"count":4,
			"max":[
				3.557898998260498,
				2.556947708129883,
				2.0059022903442383
			],
			"min":[
				0.10566580295562744,
				2.556947708129883,
				0.7132306098937988
			],
			"type":"VEC3"
		},
		{
			"bufferView":17,
			"componentType":5126,
			"count":4,
			"type":"VEC3"
		},
		{
			"bufferView":18,
			"componentType":5126,
			"count":4,
			"type":"VEC2"
		},
		{
			"bufferView":19,
			"componentType":5123,
			"count":6,
			"type":"SCALAR"
		},
		{
			"bufferView":20,
			"componentType":5126,
			"count":20,
			"max":[
				0.8719192147254944,
				2.556947708129883,
				2.036595344543457
			],
			"min":[
				-2.341161012649536,
				-1.7855141162872314,
				0.5445606708526611
			],
			"type":"VEC3"
		},
		{
			"bufferView":21,
			"componentType":5126,
			"count":20,
			"type":"VEC3"
		},
		{
			"bufferView":22,
			"componentType":5126,
			"count":20,
			"type":"VEC2"
		},
		{
			"bufferView":23,
			"componentType":5126,
			"count":4,
			"max":[
				0.4949740171432495,
				2.556947708129883,
				2.036595344543457
			],
			"min":[
				-1.964215636253357,
				2.556947708129883,
				0.9215056896209717
			],
			"type":"VEC3"
		},
		{
			"bufferView":24,
			"componentType":5126,
			"count":4,
			"type":"VEC3"
		},
		{
			"bufferView":25,
			"componentType":5126,
			"count":4,
			"type":"VEC2"
		},
		{
			"bufferView":26,
			"componentType":5126,
			"count":20,
			"max":[
				3.9348442554473877,
				2.556947708129883,
				2.0059022903442383
			],
			"min":[
				-0.27127939462661743,
				-1.7855141162872314,
				0.3362855911254883
			],
			"type":"VEC3"
		},
		{
			"bufferView":27,
			"componentType":5126,
			"count":20,
			"type":"VEC3"
		},
		{
			"bufferView":28,
			"componentType":5126,
			"count":20,
			"type":"VEC2"
		},
		{
			"bufferView":29,
			"componentType":5126,
			"count":4,
			"max":[
				3.557898998260498,
				2.556947708129883,
				2.0059022903442383
			],
			"min":[
				0.10566580295562744,
				2.556947708129883,
				0.7132306098937988
			],
			"type":"VEC3"
		},
		{
			"bufferView":30,
			"componentType":5126,
			"count":4,
			"type":"VEC3"
		},
		{
			"bufferView":31,
			"componentType":5126,
			"count":4,
			"type":"VEC2"
		}
	],
	"bufferViews":[
		{
			"buffer":0,
			"byteLength":192,
			"byteOffset":0,
			"target":34962
		},
		{
			"buffer":0,
			"byteLength":192,
			"byteOffset":192,
			"target":34962
		},
		{
			"buffer":0,
			"byteLength":128,
			"byteOffset":384,
			"target":34962
		},
		{
			"buffer":0,
			"byteLength":48,
			"byteOffset":512,
			"target":34963
		},
		{
			"buffer":0,
			"byteLength":48,
			"byteOffset":560,
			"target":34962
		},
		{
			"buffer":0,
			"byteLength":48,
			"byteOffset":608,
			"target":34962
		},
		{
			"buffer":0,
			"byteLength":32,
			"byteOffset":656,
			"target":34962
		},
		{
			"buffer":0,
			"byteLength":12,
			"byteOffset":688,
			"target":34963
		},
		{
			"buffer":0,
			"byteLength":192,
			"byteOffset":700,
			"target":34962
		},
		{
			"buffer":0,
			"byteLength":192,
			"byteOffset":892,
			"target":34962
		},
		{
			"buffer":0,
			"byteLength":128,
			"byteOffset":1084,
			"target":34962
		},
		{
			"buffer":0,
			"byteLength":84,
			"byteOffset":1212,
			"target":34963
		},
		{
			"buffer":0,
			"byteLength":240,
			"byteOffset":1296,
			"target":34962
		},
		{
			"buffer":0,
			"byteLength":240,
			"byteOffset":1536,
			"target":34962
		},
		{
			"buffer":0,
			"byteLength":160,
			"byteOffset":1776,
			"target":34962
		},
		{
			"buffer":0,
			"byteLength":60,
			"byteOffset":1936,
			"target":34963
		},
		{
			"buffer":0,
			"byteLength":48,
			"byteOffset":1996,
			"target":34962
		},
		{
			"buffer":0,
			"byteLength":48,
			"byteOffset":2044,
			"target":34962
		},
		{
			"buffer":0,
			"byteLength":32,
			"byteOffset":2092,
			"target":34962
		},
		{
			"buffer":0,
			"byteLength":12,
			"byteOffset":2124,
			"target":34963
		},
		{
			"buffer":0,
			"byteLength":240,
			"byteOffset":2136,
			"target":34962
		},
		{
			"buffer":0,
			"byteLength":240,
			"byteOffset":2376,
			"target":34962
		},
		{
			"buffer":0,
			"byteLength":160,
			"byteOffset":2616,
			"target":34962
		},
		{
			"buffer":0,
			"byteLength":48,
			"byteOffset":2776,
			"target":34962
		},
		{
			"buffer":0,
			"byteLength":48,
			"byteOffset":2824,
			"target":34962
		},
		{
			"buffer":0,
			"byteLength":32,
			"byteOffset":2872,
			"target":34962
		},
		{
			"buffer":0,
			"byteLength":240,
			"byteOffset":2904,
			"target":34962
		},
		{
			"buffer":0,
			"byteLength":240,
			"byteOffset":3144,
			"target":34962
		},
		{
			"buffer":0,
			"byteLength":160,
			"byteOffset":3384,
			"target":34962
		},
		{
			"buffer":0,
			"byteLength":48,
			"byteOffset":3544,
			"target":34962
		},
		{
			"buffer":0,
			"byteLength":48,
			"byteOffset":3592,
			"target":34962
		},
		{
			"buffer":0,
			"byteLength":32,
			"byteOffset":3640,
			"target":34962
		}
	],
	"samplers":[
		{
			"magFilter":9728,
			"minFilter":9984
		}
	],
	"buffers":[
		{
			"byteLength":3672,
			"uri":"cerium.bin"
		}
	]
}
