{
	"asset":{
		"generator":"Khronos glTF Blender I/O v4.1.63",
		"version":"2.0"
	},
	"scene":0,
	"scenes":[
		{
			"name":"Intro",
			"nodes":[
				0,
				1,
				2,
				3
			]
		}
	],
	"nodes":[
		{
			"mesh":0,
			"name":"Level.006"
		},
		{
			"mesh":1,
			"name":"Cube.008-convcol",
			"translation":[
				-3.056097984313965,
				0,
				0.14397594332695007
			]
		},
		{
			"mesh":2,
			"name":"NavMesh.003",
			"translation":[
				0,
				0.05312848091125488,
				0
			]
		},
		{
			"mesh":3,
			"name":"Cube.007-convcol",
			"translation":[
				0,
				1.4430522918701172,
				0
			]
		}
	],
	"materials":[
		{
			"alphaMode":"BLEND",
			"doubleSided":true,
			"name":"StoneBricksSplitface001_1K",
			"normalTexture":{
				"index":0,
				"scale":0
			},
			"pbrMetallicRoughness":{
				"baseColorTexture":{
					"index":1
				},
				"metallicRoughnessTexture":{
					"index":2
				}
			}
		},
		{
			"alphaMode":"BLEND",
			"doubleSided":true,
			"name":"ConcreteBlocksPavingSquareStack001_1K",
			"normalTexture":{
				"index":3,
				"scale":0
			},
			"pbrMetallicRoughness":{
				"baseColorTexture":{
					"index":4
				},
				"metallicRoughnessTexture":{
					"index":5
				}
			}
		},
		{
			"doubleSided":true,
			"name":"Material.002",
			"pbrMetallicRoughness":{}
		},
		{
			"doubleSided":true,
			"name":"Material.001",
			"pbrMetallicRoughness":{}
		}
	],
	"meshes":[
		{
			"name":"Cube.021",
			"primitives":[
				{
					"attributes":{
						"POSITION":0,
						"NORMAL":1,
						"TEXCOORD_0":2
					},
					"indices":3,
					"material":0
				},
				{
					"attributes":{
						"POSITION":4,
						"NORMAL":5,
						"TEXCOORD_0":6
					},
					"indices":7,
					"material":1
				}
			]
		},
		{
			"name":"Cube.022",
			"primitives":[
				{
					"attributes":{
						"POSITION":8,
						"NORMAL":9,
						"TEXCOORD_0":10
					},
					"indices":11,
					"material":0
				},
				{
					"attributes":{
						"POSITION":12,
						"NORMAL":13,
						"TEXCOORD_0":14
					},
					"indices":15,
					"material":2
				}
			]
		},
		{
			"name":"Cube.023",
			"primitives":[
				{
					"attributes":{
						"POSITION":16,
						"NORMAL":17,
						"TEXCOORD_0":18
					},
					"indices":19
				}
			]
		},
		{
			"name":"Cube.024",
			"primitives":[
				{
					"attributes":{
						"POSITION":20,
						"NORMAL":21,
						"TEXCOORD_0":22
					},
					"indices":11,
					"material":0
				},
				{
					"attributes":{
						"POSITION":23,
						"NORMAL":24,
						"TEXCOORD_0":25
					},
					"indices":15,
					"material":3
				}
			]
		}
	],
	"textures":[
		{
			"sampler":0,
			"source":0
		},
		{
			"sampler":0,
			"source":1
		},
		{
			"sampler":0,
			"source":2
		},
		{
			"sampler":0,
			"source":3
		},
		{
			"sampler":0,
			"source":4
		},
		{
			"sampler":0,
			"source":5
		}
	],
	"images":[
		{
			"mimeType":"image/png",
			"name":"StoneBricksSplitface001_NRM_1K",
			"uri":"StoneBricksSplitface001_NRM_1K.png"
		},
		{
			"mimeType":"image/png",
			"name":"StoneBricksSplitface001_COL_1K",
			"uri":"StoneBricksSplitface001_COL_1K.png"
		},
		{
			"mimeType":"image/png",
			"name":"StoneBricksSplitface001_REFL_1K-StoneBricksSplitface001_ROUGHNESS_1K",
			"uri":"StoneBricksSplitface001_REFL_1K-StoneBricksSplitface001_ROUGHNESS_1K.png"
		},
		{
			"mimeType":"image/png",
			"name":"ConcreteBlocksPavingSquareStack001_NRM_1K",
			"uri":"ConcreteBlocksPavingSquareStack001_NRM_1K.png"
		},
		{
			"mimeType":"image/png",
			"name":"ConcreteBlocksPavingSquareStack001_COL_1K",
			"uri":"ConcreteBlocksPavingSquareStack001_COL_1K.png"
		},
		{
			"mimeType":"image/png",
			"name":"ConcreteBlocksPavingSquareStack001_REFL_1K-ConcreteBlocksPavingSquareStack001_ROUGHNESS_1K",
			"uri":"ConcreteBlocksPavingSquareStack001_REFL_1K-ConcreteBlocksPavingSquareStack001_ROUGHNESS_1K.png"
		}
	],
	"accessors":[
		{
			"bufferView":0,
			"componentType":5126,
			"count":16,
			"max":[
				6.82551383972168,
				4,
				3.798797369003296
			],
			"min":[
				-6.82551383972168,
				0,
				-3.798797369003296
			],
			"type":"VEC3"
		},
		{
			"bufferView":1,
			"componentType":5126,
			"count":16,
			"type":"VEC3"
		},
		{
			"bufferView":2,
			"componentType":5126,
			"count":16,
			"type":"VEC2"
		},
		{
			"bufferView":3,
			"componentType":5123,
			"count":24,
			"type":"SCALAR"
		},
		{
			"bufferView":4,
			"componentType":5126,
			"count":4,
			"max":[
				5.93770170211792,
				0,
				2.996234893798828
			],
			"min":[
				-5.93770170211792,
				0,
				-2.996234893798828
			],
			"type":"VEC3"
		},
		{
			"bufferView":5,
			"componentType":5126,
			"count":4,
			"type":"VEC3"
		},
		{
			"bufferView":6,
			"componentType":5126,
			"count":4,
			"type":"VEC2"
		},
		{
			"bufferView":7,
			"componentType":5123,
			"count":6,
			"type":"SCALAR"
		},
		{
			"bufferView":8,
			"componentType":5126,
			"count":20,
			"max":[
				0.3803240656852722,
				4,
				2.0216782093048096
			],
			"min":[
				-0.6216782927513123,
				-0.34246179461479187,
				-2.0216782093048096
			],
			"type":"VEC3"
		},
		{
			"bufferView":9,
			"componentType":5126,
			"count":20,
			"type":"VEC3"
		},
		{
			"bufferView":10,
			"componentType":5126,
			"count":20,
			"type":"VEC2"
		},
		{
			"bufferView":11,
			"componentType":5123,
			"count":30,
			"type":"SCALAR"
		},
		{
			"bufferView":12,
			"componentType":5126,
			"count":4,
			"max":[
				-0.025588110089302063,
				4,
				1.6157660484313965
			],
			"min":[
				-0.21576613187789917,
				4,
				-1.6157660484313965
			],
			"type":"VEC3"
		},
		{
			"bufferView":13,
			"componentType":5126,
			"count":4,
			"type":"VEC3"
		},
		{
			"bufferView":14,
			"componentType":5126,
			"count":4,
			"type":"VEC2"
		},
		{
			"bufferView":15,
			"componentType":5123,
			"count":6,
			"type":"SCALAR"
		},
		{
			"bufferView":16,
			"componentType":5126,
			"count":12,
			"max":[
				5.93770170211792,
				0,
				2.996234893798828
			],
			"min":[
				-5.93770170211792,
				0,
				-2.996234893798828
			],
			"type":"VEC3"
		},
		{
			"bufferView":17,
			"componentType":5126,
			"count":12,
			"type":"VEC3"
		},
		{
			"bufferView":18,
			"componentType":5126,
			"count":12,
			"type":"VEC2"
		},
		{
			"bufferView":19,
			"componentType":5123,
			"count":42,
			"type":"SCALAR"
		},
		{
			"bufferView":20,
			"componentType":5126,
			"count":20,
			"max":[
				0.8719192147254944,
				2.556947708129883,
				0.8854169845581055
			],
			"min":[
				-0.8719192147254944,
				-1.7855141162872314,
				-0.8854169249534607
			],
			"type":"VEC3"
		},
		{
			"bufferView":21,
			"componentType":5126,
			"count":20,
			"type":"VEC3"
		},
		{
			"bufferView":22,
			"componentType":5126,
			"count":20,
			"type":"VEC2"
		},
		{
			"bufferView":23,
			"componentType":5126,
			"count":4,
			"max":[
				0.4949740171432495,
				2.556947708129883,
				0.5084717869758606
			],
			"min":[
				-0.4949740171432495,
				2.556947708129883,
				-0.5084717273712158
			],
			"type":"VEC3"
		},
		{
			"bufferView":24,
			"componentType":5126,
			"count":4,
			"type":"VEC3"
		},
		{
			"bufferView":25,
			"componentType":5126,
			"count":4,
			"type":"VEC2"
		}
	],
	"bufferViews":[
		{
			"buffer":0,
			"byteLength":192,
			"byteOffset":0,
			"target":34962
		},
		{
			"buffer":0,
			"byteLength":192,
			"byteOffset":192,
			"target":34962
		},
		{
			"buffer":0,
			"byteLength":128,
			"byteOffset":384,
			"target":34962
		},
		{
			"buffer":0,
			"byteLength":48,
			"byteOffset":512,
			"target":34963
		},
		{
			"buffer":0,
			"byteLength":48,
			"byteOffset":560,
			"target":34962
		},
		{
			"buffer":0,
			"byteLength":48,
			"byteOffset":608,
			"target":34962
		},
		{
			"buffer":0,
			"byteLength":32,
			"byteOffset":656,
			"target":34962
		},
		{
			"buffer":0,
			"byteLength":12,
			"byteOffset":688,
			"target":34963
		},
		{
			"buffer":0,
			"byteLength":240,
			"byteOffset":700,
			"target":34962
		},
		{
			"buffer":0,
			"byteLength":240,
			"byteOffset":940,
			"target":34962
		},
		{
			"buffer":0,
			"byteLength":160,
			"byteOffset":1180,
			"target":34962
		},
		{
			"buffer":0,
			"byteLength":60,
			"byteOffset":1340,
			"target":34963
		},
		{
			"buffer":0,
			"byteLength":48,
			"byteOffset":1400,
			"target":34962
		},
		{
			"buffer":0,
			"byteLength":48,
			"byteOffset":1448,
			"target":34962
		},
		{
			"buffer":0,
			"byteLength":32,
			"byteOffset":1496,
			"target":34962
		},
		{
			"buffer":0,
			"byteLength":12,
			"byteOffset":1528,
			"target":34963
		},
		{
			"buffer":0,
			"byteLength":144,
			"byteOffset":1540,
			"target":34962
		},
		{
			"buffer":0,
			"byteLength":144,
			"byteOffset":1684,
			"target":34962
		},
		{
			"buffer":0,
			"byteLength":96,
			"byteOffset":1828,
			"target":34962
		},
		{
			"buffer":0,
			"byteLength":84,
			"byteOffset":1924,
			"target":34963
		},
		{
			"buffer":0,
			"byteLength":240,
			"byteOffset":2008,
			"target":34962
		},
		{
			"buffer":0,
			"byteLength":240,
			"byteOffset":2248,
			"target":34962
		},
		{
			"buffer":0,
			"byteLength":160,
			"byteOffset":2488,
			"target":34962
		},
		{
			"buffer":0,
			"byteLength":48,
			"byteOffset":2648,
			"target":34962
		},
		{
			"buffer":0,
			"byteLength":48,
			"byteOffset":2696,
			"target":34962
		},
		{
			"buffer":0,
			"byteLength":32,
			"byteOffset":2744,
			"target":34962
		}
	],
	"samplers":[
		{
			"magFilter":9729,
			"minFilter":9987
		}
	],
	"buffers":[
		{
			"byteLength":2776,
			"uri":"intro.bin"
		}
	]
}
