{
	"asset":{
		"generator":"Khronos glTF Blender I/O v4.1.63",
		"version":"2.0"
	},
	"scene":0,
	"scenes":[
		{
			"name":"Intro",
			"nodes":[
				0,
				1,
				2,
				3,
				4
			]
		}
	],
	"nodes":[
		{
			"mesh":0,
			"name":"Level.006"
		},
		{
			"mesh":1,
			"name":"NavMesh.003",
			"translation":[
				0,
				0.05312848091125488,
				0
			]
		},
		{
			"mesh":2,
			"name":"Cube.007-convcol",
			"translation":[
				-2.226314067840576,
				1.4430522918701172,
				1.7929095029830933
			]
		},
		{
			"mesh":3,
			"name":"Cube.009-convcol",
			"rotation":[
				0,
				-0.7071068286895752,
				0,
				0.7071068286895752
			],
			"translation":[
				-4.790329933166504,
				1.4430522918701172,
				0.07804187387228012
			]
		},
		{
			"mesh":4,
			"name":"Cube-convcolonly",
			"scale":[
				1.0290813446044922,
				1.0290813446044922,
				1.0290813446044922
			],
			"translation":[
				-2.1923351287841797,
				0.6856398582458496,
				0.5781158208847046
			]
		}
	],
	"materials":[
		{
			"alphaMode":"BLEND",
			"doubleSided":true,
			"name":"StoneBricksSplitface001_1K.002",
			"pbrMetallicRoughness":{
				"baseColorTexture":{
					"index":0
				},
				"metallicFactor":0,
				"metallicRoughnessTexture":{
					"index":1
				}
			}
		},
		{
			"alphaMode":"BLEND",
			"doubleSided":true,
			"name":"ConcreteBlocksPavingSquareStack001_1K.002",
			"pbrMetallicRoughness":{
				"baseColorTexture":{
					"index":2
				},
				"metallicFactor":0,
				"metallicRoughnessTexture":{
					"index":3
				}
			}
		},
		{
			"doubleSided":true,
			"name":"Material.001",
			"pbrMetallicRoughness":{}
		}
	],
	"meshes":[
		{
			"name":"Cube.021",
			"primitives":[
				{
					"attributes":{
						"POSITION":0,
						"NORMAL":1,
						"TEXCOORD_0":2
					},
					"indices":3,
					"material":0
				},
				{
					"attributes":{
						"POSITION":4,
						"NORMAL":5,
						"TEXCOORD_0":6
					},
					"indices":7,
					"material":1
				}
			]
		},
		{
			"name":"Cube.023",
			"primitives":[
				{
					"attributes":{
						"POSITION":8,
						"NORMAL":9,
						"TEXCOORD_0":10
					},
					"indices":11
				}
			]
		},
		{
			"name":"Cube.024",
			"primitives":[
				{
					"attributes":{
						"POSITION":12,
						"NORMAL":13,
						"TEXCOORD_0":14
					},
					"indices":15,
					"material":0
				},
				{
					"attributes":{
						"POSITION":16,
						"NORMAL":17,
						"TEXCOORD_0":18
					},
					"indices":19,
					"material":2
				}
			]
		},
		{
			"name":"Cube.013",
			"primitives":[
				{
					"attributes":{
						"POSITION":20,
						"NORMAL":21,
						"TEXCOORD_0":22
					},
					"indices":15,
					"material":0
				},
				{
					"attributes":{
						"POSITION":23,
						"NORMAL":24,
						"TEXCOORD_0":25
					},
					"indices":19,
					"material":2
				}
			]
		},
		{
			"name":"Cube",
			"primitives":[
				{
					"attributes":{
						"POSITION":26,
						"NORMAL":27,
						"TEXCOORD_0":28
					},
					"indices":29
				}
			]
		}
	],
	"textures":[
		{
			"sampler":0,
			"source":0
		},
		{
			"sampler":0,
			"source":1
		},
		{
			"sampler":0,
			"source":2
		},
		{
			"sampler":0,
			"source":3
		}
	],
	"images":[
		{
			"mimeType":"image/png",
			"name":"Traveling in Portal Wall Color",
			"uri":"Traveling%20in%20Portal%20Wall%20Color.png"
		},
		{
			"mimeType":"image/png",
			"name":"Traveling in Portal Wall Roughness",
			"uri":"Traveling%20in%20Portal%20Wall%20Roughness.png"
		},
		{
			"mimeType":"image/png",
			"name":"Traveling in Portal Floor Color",
			"uri":"Traveling%20in%20Portal%20Floor%20Color.png"
		},
		{
			"mimeType":"image/png",
			"name":"Traveling in Portal Floor Roughness",
			"uri":"Traveling%20in%20Portal%20Floor%20Roughness.png"
		}
	],
	"accessors":[
		{
			"bufferView":0,
			"componentType":5126,
			"count":16,
			"max":[
				6.82551383972168,
				4,
				3.798797369003296
			],
			"min":[
				-6.82551383972168,
				0,
				-3.798797369003296
			],
			"type":"VEC3"
		},
		{
			"bufferView":1,
			"componentType":5126,
			"count":16,
			"type":"VEC3"
		},
		{
			"bufferView":2,
			"componentType":5126,
			"count":16,
			"type":"VEC2"
		},
		{
			"bufferView":3,
			"componentType":5123,
			"count":24,
			"type":"SCALAR"
		},
		{
			"bufferView":4,
			"componentType":5126,
			"count":8,
			"max":[
				5.93770170211792,
				0,
				2.996234893798828
			],
			"min":[
				-5.93770170211792,
				0,
				-2.996234893798828
			],
			"type":"VEC3"
		},
		{
			"bufferView":5,
			"componentType":5126,
			"count":8,
			"type":"VEC3"
		},
		{
			"bufferView":6,
			"componentType":5126,
			"count":8,
			"type":"VEC2"
		},
		{
			"bufferView":7,
			"componentType":5123,
			"count":24,
			"type":"SCALAR"
		},
		{
			"bufferView":8,
			"componentType":5126,
			"count":10,
			"max":[
				5.93770170211792,
				0,
				2.996234893798828
			],
			"min":[
				-5.93770170211792,
				0,
				-2.996234893798828
			],
			"type":"VEC3"
		},
		{
			"bufferView":9,
			"componentType":5126,
			"count":10,
			"type":"VEC3"
		},
		{
			"bufferView":10,
			"componentType":5126,
			"count":10,
			"type":"VEC2"
		},
		{
			"bufferView":11,
			"componentType":5123,
			"count":24,
			"type":"SCALAR"
		},
		{
			"bufferView":12,
			"componentType":5126,
			"count":20,
			"max":[
				0.8719192147254944,
				2.556947708129883,
				2.0059022903442383
			],
			"min":[
				-0.27127939462661743,
				-1.7855141162872314,
				-0.6129390001296997
			],
			"type":"VEC3"
		},
		{
			"bufferView":13,
			"componentType":5126,
			"count":20,
			"type":"VEC3"
		},
		{
			"bufferView":14,
			"componentType":5126,
			"count":20,
			"type":"VEC2"
		},
		{
			"bufferView":15,
			"componentType":5123,
			"count":30,
			"type":"SCALAR"
		},
		{
			"bufferView":16,
			"componentType":5126,
			"count":4,
			"max":[
				0.4949740171432495,
				2.556947708129883,
				2.0059022903442383
			],
			"min":[
				0.10566580295562744,
				2.556947708129883,
				-0.23599398136138916
			],
			"type":"VEC3"
		},
		{
			"bufferView":17,
			"componentType":5126,
			"count":4,
			"type":"VEC3"
		},
		{
			"bufferView":18,
			"componentType":5126,
			"count":4,
			"type":"VEC2"
		},
		{
			"bufferView":19,
			"componentType":5123,
			"count":6,
			"type":"SCALAR"
		},
		{
			"bufferView":20,
			"componentType":5126,
			"count":20,
			"max":[
				0.8719192147254944,
				2.556947708129883,
				2.036595344543457
			],
			"min":[
				-0.29380354285240173,
				-1.7855141162872314,
				-2.0912013053894043
			],
			"type":"VEC3"
		},
		{
			"bufferView":21,
			"componentType":5126,
			"count":20,
			"type":"VEC3"
		},
		{
			"bufferView":22,
			"componentType":5126,
			"count":20,
			"type":"VEC2"
		},
		{
			"bufferView":23,
			"componentType":5126,
			"count":4,
			"max":[
				0.4949740171432495,
				2.556947708129883,
				2.036595344543457
			],
			"min":[
				0.08314164727926254,
				2.556947708129883,
				-1.7142562866210938
			],
			"type":"VEC3"
		},
		{
			"bufferView":24,
			"componentType":5126,
			"count":4,
			"type":"VEC3"
		},
		{
			"bufferView":25,
			"componentType":5126,
			"count":4,
			"type":"VEC2"
		},
		{
			"bufferView":26,
			"componentType":5126,
			"count":24,
			"max":[
				1,
				3.4521865844726562,
				1
			],
			"min":[
				-1,
				-1,
				-1
			],
			"type":"VEC3"
		},
		{
			"bufferView":27,
			"componentType":5126,
			"count":24,
			"type":"VEC3"
		},
		{
			"bufferView":28,
			"componentType":5126,
			"count":24,
			"type":"VEC2"
		},
		{
			"bufferView":29,
			"componentType":5123,
			"count":36,
			"type":"SCALAR"
		}
	],
	"bufferViews":[
		{
			"buffer":0,
			"byteLength":192,
			"byteOffset":0,
			"target":34962
		},
		{
			"buffer":0,
			"byteLength":192,
			"byteOffset":192,
			"target":34962
		},
		{
			"buffer":0,
			"byteLength":128,
			"byteOffset":384,
			"target":34962
		},
		{
			"buffer":0,
			"byteLength":48,
			"byteOffset":512,
			"target":34963
		},
		{
			"buffer":0,
			"byteLength":96,
			"byteOffset":560,
			"target":34962
		},
		{
			"buffer":0,
			"byteLength":96,
			"byteOffset":656,
			"target":34962
		},
		{
			"buffer":0,
			"byteLength":64,
			"byteOffset":752,
			"target":34962
		},
		{
			"buffer":0,
			"byteLength":48,
			"byteOffset":816,
			"target":34963
		},
		{
			"buffer":0,
			"byteLength":120,
			"byteOffset":864,
			"target":34962
		},
		{
			"buffer":0,
			"byteLength":120,
			"byteOffset":984,
			"target":34962
		},
		{
			"buffer":0,
			"byteLength":80,
			"byteOffset":1104,
			"target":34962
		},
		{
			"buffer":0,
			"byteLength":48,
			"byteOffset":1184,
			"target":34963
		},
		{
			"buffer":0,
			"byteLength":240,
			"byteOffset":1232,
			"target":34962
		},
		{
			"buffer":0,
			"byteLength":240,
			"byteOffset":1472,
			"target":34962
		},
		{
			"buffer":0,
			"byteLength":160,
			"byteOffset":1712,
			"target":34962
		},
		{
			"buffer":0,
			"byteLength":60,
			"byteOffset":1872,
			"target":34963
		},
		{
			"buffer":0,
			"byteLength":48,
			"byteOffset":1932,
			"target":34962
		},
		{
			"buffer":0,
			"byteLength":48,
			"byteOffset":1980,
			"target":34962
		},
		{
			"buffer":0,
			"byteLength":32,
			"byteOffset":2028,
			"target":34962
		},
		{
			"buffer":0,
			"byteLength":12,
			"byteOffset":2060,
			"target":34963
		},
		{
			"buffer":0,
			"byteLength":240,
			"byteOffset":2072,
			"target":34962
		},
		{
			"buffer":0,
			"byteLength":240,
			"byteOffset":2312,
			"target":34962
		},
		{
			"buffer":0,
			"byteLength":160,
			"byteOffset":2552,
			"target":34962
		},
		{
			"buffer":0,
			"byteLength":48,
			"byteOffset":2712,
			"target":34962
		},
		{
			"buffer":0,
			"byteLength":48,
			"byteOffset":2760,
			"target":34962
		},
		{
			"buffer":0,
			"byteLength":32,
			"byteOffset":2808,
			"target":34962
		},
		{
			"buffer":0,
			"byteLength":288,
			"byteOffset":2840,
			"target":34962
		},
		{
			"buffer":0,
			"byteLength":288,
			"byteOffset":3128,
			"target":34962
		},
		{
			"buffer":0,
			"byteLength":192,
			"byteOffset":3416,
			"target":34962
		},
		{
			"buffer":0,
			"byteLength":72,
			"byteOffset":3608,
			"target":34963
		}
	],
	"samplers":[
		{
			"magFilter":9728,
			"minFilter":9984
		}
	],
	"buffers":[
		{
			"byteLength":3680,
			"uri":"intro.bin"
		}
	]
}
