{
	"asset":{
		"generator":"Khronos glTF Blender I/O v4.1.63",
		"version":"2.0"
	},
	"scene":0,
	"scenes":[
		{
			"name":"Cerium",
			"nodes":[
				0,
				1,
				2,
				3,
				4
			]
		}
	],
	"nodes":[
		{
			"mesh":0,
			"name":"Level"
		},
		{
			"mesh":1,
			"name":"Cube.003-convcol",
			"translation":[
				-2.9817898273468018,
				0,
				0
			]
		},
		{
			"mesh":1,
			"name":"Cube.001-convcol",
			"translation":[
				2.981790065765381,
				0,
				0
			]
		},
		{
			"mesh":2,
			"name":"NavMesh",
			"translation":[
				0,
				0.05312848091125488,
				0
			]
		},
		{
			"mesh":3,
			"name":"Cube.002-convcolonly"
		}
	],
	"materials":[
		{
			"alphaMode":"BLEND",
			"doubleSided":true,
			"name":"TilesTerrazzoVenetianPolished001_1K",
			"normalTexture":{
				"index":0,
				"scale":0
			},
			"pbrMetallicRoughness":{
				"baseColorTexture":{
					"index":1
				},
				"metallicRoughnessTexture":{
					"index":2
				}
			}
		},
		{
			"alphaMode":"BLEND",
			"doubleSided":true,
			"name":"TilesMosaicPennyround001_1K",
			"normalTexture":{
				"index":3,
				"scale":0
			},
			"pbrMetallicRoughness":{
				"baseColorTexture":{
					"index":4
				},
				"metallicRoughnessTexture":{
					"index":5
				}
			}
		},
		{
			"doubleSided":true,
			"name":"Material.002",
			"pbrMetallicRoughness":{}
		}
	],
	"meshes":[
		{
			"name":"Cube.003",
			"primitives":[
				{
					"attributes":{
						"POSITION":0,
						"NORMAL":1,
						"TEXCOORD_0":2
					},
					"indices":3,
					"material":0
				},
				{
					"attributes":{
						"POSITION":4,
						"NORMAL":5,
						"TEXCOORD_0":6
					},
					"indices":7,
					"material":1
				}
			]
		},
		{
			"name":"Cube.004",
			"primitives":[
				{
					"attributes":{
						"POSITION":8,
						"NORMAL":9,
						"TEXCOORD_0":10
					},
					"indices":11,
					"material":0
				},
				{
					"attributes":{
						"POSITION":12,
						"NORMAL":13,
						"TEXCOORD_0":14
					},
					"indices":15,
					"material":2
				}
			]
		},
		{
			"name":"Cube.001",
			"primitives":[
				{
					"attributes":{
						"POSITION":16,
						"NORMAL":17,
						"TEXCOORD_0":18
					},
					"indices":19
				}
			]
		},
		{
			"name":"Cube.028",
			"primitives":[
				{
					"attributes":{
						"POSITION":20,
						"NORMAL":21,
						"TEXCOORD_0":22
					},
					"indices":23
				}
			]
		}
	],
	"textures":[
		{
			"sampler":0,
			"source":0
		},
		{
			"sampler":0,
			"source":1
		},
		{
			"sampler":0,
			"source":2
		},
		{
			"sampler":0,
			"source":3
		},
		{
			"sampler":0,
			"source":4
		},
		{
			"sampler":0,
			"source":5
		}
	],
	"images":[
		{
			"mimeType":"image/png",
			"name":"TilesTerrazzoVenetianPolished001_NRM_1K",
			"uri":"TilesTerrazzoVenetianPolished001_NRM_1K.png"
		},
		{
			"mimeType":"image/png",
			"name":"TilesTerrazzoVenetianPolished001_COL_VAR1_1K",
			"uri":"TilesTerrazzoVenetianPolished001_COL_VAR1_1K.png"
		},
		{
			"mimeType":"image/png",
			"name":"TilesTerrazzoVenetianPolished001_REFL_1K-TilesTerrazzoVenetianPolished001_GLOSS_1K",
			"uri":"TilesTerrazzoVenetianPolished001_REFL_1K-TilesTerrazzoVenetianPolished001_GLOSS_1K.png"
		},
		{
			"mimeType":"image/png",
			"name":"TilesMosaicPennyround001_NRM_1K",
			"uri":"TilesMosaicPennyround001_NRM_1K.png"
		},
		{
			"mimeType":"image/png",
			"name":"TilesMosaicPennyround001_COL_1K",
			"uri":"TilesMosaicPennyround001_COL_1K.png"
		},
		{
			"mimeType":"image/png",
			"name":"TilesMosaicPennyround001_REFL_1K-TilesMosaicPennyround001_ROUGHNESS_1K",
			"uri":"TilesMosaicPennyround001_REFL_1K-TilesMosaicPennyround001_ROUGHNESS_1K.png"
		}
	],
	"accessors":[
		{
			"bufferView":0,
			"componentType":5126,
			"count":16,
			"max":[
				6.82551383972168,
				4,
				3.798797369003296
			],
			"min":[
				-6.82551383972168,
				0,
				-3.798797369003296
			],
			"type":"VEC3"
		},
		{
			"bufferView":1,
			"componentType":5126,
			"count":16,
			"type":"VEC3"
		},
		{
			"bufferView":2,
			"componentType":5126,
			"count":16,
			"type":"VEC2"
		},
		{
			"bufferView":3,
			"componentType":5123,
			"count":24,
			"type":"SCALAR"
		},
		{
			"bufferView":4,
			"componentType":5126,
			"count":8,
			"max":[
				5.93770170211792,
				0,
				2.996234893798828
			],
			"min":[
				-5.93770170211792,
				0,
				-2.996234893798828
			],
			"type":"VEC3"
		},
		{
			"bufferView":5,
			"componentType":5126,
			"count":8,
			"type":"VEC3"
		},
		{
			"bufferView":6,
			"componentType":5126,
			"count":8,
			"type":"VEC2"
		},
		{
			"bufferView":7,
			"componentType":5123,
			"count":24,
			"type":"SCALAR"
		},
		{
			"bufferView":8,
			"componentType":5126,
			"count":20,
			"max":[
				1.3216782808303833,
				4,
				1.3216782808303833
			],
			"min":[
				-1.3216782808303833,
				0,
				-1.3216782808303833
			],
			"type":"VEC3"
		},
		{
			"bufferView":9,
			"componentType":5126,
			"count":20,
			"type":"VEC3"
		},
		{
			"bufferView":10,
			"componentType":5126,
			"count":20,
			"type":"VEC2"
		},
		{
			"bufferView":11,
			"componentType":5123,
			"count":30,
			"type":"SCALAR"
		},
		{
			"bufferView":12,
			"componentType":5126,
			"count":4,
			"max":[
				0.9157661199569702,
				4,
				0.9157661199569702
			],
			"min":[
				-0.9157661199569702,
				4,
				-0.9157661199569702
			],
			"type":"VEC3"
		},
		{
			"bufferView":13,
			"componentType":5126,
			"count":4,
			"type":"VEC3"
		},
		{
			"bufferView":14,
			"componentType":5126,
			"count":4,
			"type":"VEC2"
		},
		{
			"bufferView":15,
			"componentType":5123,
			"count":6,
			"type":"SCALAR"
		},
		{
			"bufferView":16,
			"componentType":5126,
			"count":18,
			"max":[
				5.93770170211792,
				0,
				2.996234893798828
			],
			"min":[
				-5.93770170211792,
				0,
				-2.996234893798828
			],
			"type":"VEC3"
		},
		{
			"bufferView":17,
			"componentType":5126,
			"count":18,
			"type":"VEC3"
		},
		{
			"bufferView":18,
			"componentType":5126,
			"count":18,
			"type":"VEC2"
		},
		{
			"bufferView":19,
			"componentType":5123,
			"count":66,
			"type":"SCALAR"
		},
		{
			"bufferView":20,
			"componentType":5126,
			"count":24,
			"max":[
				0.8159915208816528,
				4.186519145965576,
				2.996230125427246
			],
			"min":[
				-0.8159915208816528,
				-1,
				-2.996230125427246
			],
			"type":"VEC3"
		},
		{
			"bufferView":21,
			"componentType":5126,
			"count":24,
			"type":"VEC3"
		},
		{
			"bufferView":22,
			"componentType":5126,
			"count":24,
			"type":"VEC2"
		},
		{
			"bufferView":23,
			"componentType":5123,
			"count":36,
			"type":"SCALAR"
		}
	],
	"bufferViews":[
		{
			"buffer":0,
			"byteLength":192,
			"byteOffset":0,
			"target":34962
		},
		{
			"buffer":0,
			"byteLength":192,
			"byteOffset":192,
			"target":34962
		},
		{
			"buffer":0,
			"byteLength":128,
			"byteOffset":384,
			"target":34962
		},
		{
			"buffer":0,
			"byteLength":48,
			"byteOffset":512,
			"target":34963
		},
		{
			"buffer":0,
			"byteLength":96,
			"byteOffset":560,
			"target":34962
		},
		{
			"buffer":0,
			"byteLength":96,
			"byteOffset":656,
			"target":34962
		},
		{
			"buffer":0,
			"byteLength":64,
			"byteOffset":752,
			"target":34962
		},
		{
			"buffer":0,
			"byteLength":48,
			"byteOffset":816,
			"target":34963
		},
		{
			"buffer":0,
			"byteLength":240,
			"byteOffset":864,
			"target":34962
		},
		{
			"buffer":0,
			"byteLength":240,
			"byteOffset":1104,
			"target":34962
		},
		{
			"buffer":0,
			"byteLength":160,
			"byteOffset":1344,
			"target":34962
		},
		{
			"buffer":0,
			"byteLength":60,
			"byteOffset":1504,
			"target":34963
		},
		{
			"buffer":0,
			"byteLength":48,
			"byteOffset":1564,
			"target":34962
		},
		{
			"buffer":0,
			"byteLength":48,
			"byteOffset":1612,
			"target":34962
		},
		{
			"buffer":0,
			"byteLength":32,
			"byteOffset":1660,
			"target":34962
		},
		{
			"buffer":0,
			"byteLength":12,
			"byteOffset":1692,
			"target":34963
		},
		{
			"buffer":0,
			"byteLength":216,
			"byteOffset":1704,
			"target":34962
		},
		{
			"buffer":0,
			"byteLength":216,
			"byteOffset":1920,
			"target":34962
		},
		{
			"buffer":0,
			"byteLength":144,
			"byteOffset":2136,
			"target":34962
		},
		{
			"buffer":0,
			"byteLength":132,
			"byteOffset":2280,
			"target":34963
		},
		{
			"buffer":0,
			"byteLength":288,
			"byteOffset":2412,
			"target":34962
		},
		{
			"buffer":0,
			"byteLength":288,
			"byteOffset":2700,
			"target":34962
		},
		{
			"buffer":0,
			"byteLength":192,
			"byteOffset":2988,
			"target":34962
		},
		{
			"buffer":0,
			"byteLength":72,
			"byteOffset":3180,
			"target":34963
		}
	],
	"samplers":[
		{
			"magFilter":9729,
			"minFilter":9987
		}
	],
	"buffers":[
		{
			"byteLength":3252,
			"uri":"cerium.bin"
		}
	]
}
