{
	"asset":{
		"generator":"Khronos glTF Blender I/O v4.1.63",
		"version":"2.0"
	},
	"scene":0,
	"scenes":[
		{
			"name":"Scene",
			"nodes":[
				0,
				1
			]
		}
	],
	"nodes":[
		{
			"mesh":0,
			"name":"MoneyBag-convcol"
		},
		{
			"mesh":1,
			"name":"Torus Knot 2 x 3",
			"rotation":[
				-0.0748235285282135,
				0.0009901700541377068,
				0.0970652773976326,
				0.992461085319519
			],
			"translation":[
				0.03983887657523155,
				0.40904298424720764,
				0.0018309392035007477
			]
		}
	],
	"materials":[
		{
			"doubleSided":true,
			"name":"TweedBag",
			"pbrMetallicRoughness":{
				"baseColorFactor":[
					0.48288702964782715,
					0.3442367911338806,
					0.20697233080863953,
					1
				],
				"metallicFactor":0,
				"roughnessFactor":0.654285728931427
			}
		},
		{
			"doubleSided":true,
			"name":"Rope",
			"pbrMetallicRoughness":{
				"baseColorFactor":[
					0.18395832180976868,
					0.06240541487932205,
					0.010445794090628624,
					1
				],
				"metallicFactor":0,
				"roughnessFactor":0.6199999451637268
			}
		}
	],
	"meshes":[
		{
			"name":"Mesh",
			"primitives":[
				{
					"attributes":{
						"POSITION":0,
						"NORMAL":1,
						"TEXCOORD_0":2
					},
					"indices":3,
					"material":0
				}
			]
		},
		{
			"name":"Torus Knot 2 x 3",
			"primitives":[
				{
					"attributes":{
						"POSITION":4,
						"NORMAL":5,
						"TEXCOORD_0":6
					},
					"indices":7,
					"material":1
				}
			]
		}
	],
	"accessors":[
		{
			"bufferView":0,
			"componentType":5126,
			"count":251,
			"max":[
				0.4290008544921875,
				0.6368145942687988,
				0.42160123586654663
			],
			"min":[
				-0.4115968644618988,
				-0.433755099773407,
				-0.4202713072299957
			],
			"type":"VEC3"
		},
		{
			"bufferView":1,
			"componentType":5126,
			"count":251,
			"type":"VEC3"
		},
		{
			"bufferView":2,
			"componentType":5126,
			"count":251,
			"type":"VEC2"
		},
		{
			"bufferView":3,
			"componentType":5123,
			"count":1248,
			"type":"SCALAR"
		},
		{
			"bufferView":4,
			"componentType":5126,
			"count":765,
			"max":[
				0.100701704621315,
				0.038176827132701874,
				0.09790630638599396
			],
			"min":[
				-0.0850205272436142,
				-0.03842470049858093,
				-0.0981651321053505
			],
			"type":"VEC3"
		},
		{
			"bufferView":5,
			"componentType":5126,
			"count":765,
			"type":"VEC3"
		},
		{
			"bufferView":6,
			"componentType":5126,
			"count":765,
			"type":"VEC2"
		},
		{
			"bufferView":7,
			"componentType":5123,
			"count":4032,
			"type":"SCALAR"
		}
	],
	"bufferViews":[
		{
			"buffer":0,
			"byteLength":3012,
			"byteOffset":0,
			"target":34962
		},
		{
			"buffer":0,
			"byteLength":3012,
			"byteOffset":3012,
			"target":34962
		},
		{
			"buffer":0,
			"byteLength":2008,
			"byteOffset":6024,
			"target":34962
		},
		{
			"buffer":0,
			"byteLength":2496,
			"byteOffset":8032,
			"target":34963
		},
		{
			"buffer":0,
			"byteLength":9180,
			"byteOffset":10528,
			"target":34962
		},
		{
			"buffer":0,
			"byteLength":9180,
			"byteOffset":19708,
			"target":34962
		},
		{
			"buffer":0,
			"byteLength":6120,
			"byteOffset":28888,
			"target":34962
		},
		{
			"buffer":0,
			"byteLength":8064,
			"byteOffset":35008,
			"target":34963
		}
	],
	"buffers":[
		{
			"byteLength":43072,
			"uri":"money_bag.bin"
		}
	]
}
