{
	"asset":{
		"generator":"Khronos glTF Blender I/O v4.1.63",
		"version":"2.0"
	},
	"scene":0,
	"scenes":[
		{
			"name":"Sid",
			"nodes":[
				0,
				1,
				2,
				3,
				4
			]
		}
	],
	"nodes":[
		{
			"mesh":0,
			"name":"Level.001"
		},
		{
			"mesh":1,
			"name":"Cube.004-convcol",
			"translation":[
				-0.3475502133369446,
				0,
				0
			]
		},
		{
			"mesh":2,
			"name":"NavMesh.001",
			"translation":[
				0,
				0.05312848091125488,
				0
			]
		},
		{
			"mesh":3,
			"name":"Cube.006-convcol",
			"translation":[
				-3.8131299018859863,
				0,
				-0.9559959769248962
			]
		},
		{
			"mesh":4,
			"name":"Cube.005-col",
			"translation":[
				4.587662220001221,
				0,
				-0.17213797569274902
			]
		}
	],
	"materials":[
		{
			"name":"Wall_material",
			"pbrMetallicRoughness":{
				"baseColorTexture":{
					"index":0
				},
				"metallicFactor":0,
				"roughnessFactor":0.5
			}
		},
		{
			"name":"Floor_material_baked",
			"pbrMetallicRoughness":{
				"baseColorTexture":{
					"index":1
				},
				"metallicFactor":0,
				"roughnessFactor":0.5
			}
		},
		{
			"doubleSided":true,
			"name":"Material.002",
			"pbrMetallicRoughness":{}
		},
		{
			"name":"Wall_material.003",
			"pbrMetallicRoughness":{
				"baseColorTexture":{
					"index":2
				},
				"metallicFactor":0,
				"roughnessFactor":0.5
			}
		},
		{
			"doubleSided":true,
			"name":"Material.001",
			"pbrMetallicRoughness":{}
		}
	],
	"meshes":[
		{
			"name":"Cube.002",
			"primitives":[
				{
					"attributes":{
						"POSITION":0,
						"NORMAL":1,
						"TEXCOORD_0":2
					},
					"indices":3,
					"material":0
				},
				{
					"attributes":{
						"POSITION":4,
						"NORMAL":5,
						"TEXCOORD_0":6
					},
					"indices":7,
					"material":1
				}
			]
		},
		{
			"name":"Cube.007",
			"primitives":[
				{
					"attributes":{
						"POSITION":8,
						"NORMAL":9,
						"TEXCOORD_0":10
					},
					"indices":11,
					"material":0
				},
				{
					"attributes":{
						"POSITION":12,
						"NORMAL":13,
						"TEXCOORD_0":14
					},
					"indices":15,
					"material":2
				}
			]
		},
		{
			"name":"Cube.008",
			"primitives":[
				{
					"attributes":{
						"POSITION":16,
						"NORMAL":17,
						"TEXCOORD_0":18
					},
					"indices":19
				}
			]
		},
		{
			"name":"Cube.010",
			"primitives":[
				{
					"attributes":{
						"POSITION":20,
						"NORMAL":21,
						"TEXCOORD_0":22
					},
					"indices":11,
					"material":3
				},
				{
					"attributes":{
						"POSITION":23,
						"NORMAL":24,
						"TEXCOORD_0":25
					},
					"indices":15,
					"material":4
				}
			]
		},
		{
			"name":"Cube.011",
			"primitives":[
				{
					"attributes":{
						"POSITION":26,
						"NORMAL":27,
						"TEXCOORD_0":28
					},
					"indices":29,
					"material":0
				},
				{
					"attributes":{
						"POSITION":30,
						"NORMAL":31,
						"TEXCOORD_0":32
					},
					"indices":33,
					"material":2
				}
			]
		}
	],
	"textures":[
		{
			"sampler":0,
			"source":0
		},
		{
			"sampler":0,
			"source":1
		},
		{
			"sampler":0,
			"source":2
		}
	],
	"images":[
		{
			"mimeType":"image/png",
			"name":"lab_wall_tile01",
			"uri":"lab_wall_tile01.png"
		},
		{
			"mimeType":"image/png",
			"name":"lab_tile01",
			"uri":"lab_tile01.png"
		},
		{
			"mimeType":"image/png",
			"name":"lab_wall_tile01.png",
			"uri":"lab_wall_tile01_png.png"
		}
	],
	"accessors":[
		{
			"bufferView":0,
			"componentType":5126,
			"count":16,
			"max":[
				6.82551383972168,
				4,
				3.798797369003296
			],
			"min":[
				-6.82551383972168,
				0,
				-3.798797369003296
			],
			"type":"VEC3"
		},
		{
			"bufferView":1,
			"componentType":5126,
			"count":16,
			"type":"VEC3"
		},
		{
			"bufferView":2,
			"componentType":5126,
			"count":16,
			"type":"VEC2"
		},
		{
			"bufferView":3,
			"componentType":5123,
			"count":24,
			"type":"SCALAR"
		},
		{
			"bufferView":4,
			"componentType":5126,
			"count":4,
			"max":[
				5.93770170211792,
				0,
				2.996234893798828
			],
			"min":[
				-5.93770170211792,
				0,
				-2.996234893798828
			],
			"type":"VEC3"
		},
		{
			"bufferView":5,
			"componentType":5126,
			"count":4,
			"type":"VEC3"
		},
		{
			"bufferView":6,
			"componentType":5126,
			"count":4,
			"type":"VEC2"
		},
		{
			"bufferView":7,
			"componentType":5123,
			"count":6,
			"type":"SCALAR"
		},
		{
			"bufferView":8,
			"componentType":5126,
			"count":20,
			"max":[
				0.6216782927513123,
				4,
				2.0216782093048096
			],
			"min":[
				-0.6216782927513123,
				-0.34246179461479187,
				-2.0216782093048096
			],
			"type":"VEC3"
		},
		{
			"bufferView":9,
			"componentType":5126,
			"count":20,
			"type":"VEC3"
		},
		{
			"bufferView":10,
			"componentType":5126,
			"count":20,
			"type":"VEC2"
		},
		{
			"bufferView":11,
			"componentType":5123,
			"count":30,
			"type":"SCALAR"
		},
		{
			"bufferView":12,
			"componentType":5126,
			"count":4,
			"max":[
				0.21576613187789917,
				4,
				1.6157660484313965
			],
			"min":[
				-0.21576613187789917,
				4,
				-1.6157660484313965
			],
			"type":"VEC3"
		},
		{
			"bufferView":13,
			"componentType":5126,
			"count":4,
			"type":"VEC3"
		},
		{
			"bufferView":14,
			"componentType":5126,
			"count":4,
			"type":"VEC2"
		},
		{
			"bufferView":15,
			"componentType":5123,
			"count":6,
			"type":"SCALAR"
		},
		{
			"bufferView":16,
			"componentType":5126,
			"count":20,
			"max":[
				5.93770170211792,
				0,
				2.996234893798828
			],
			"min":[
				-5.93770170211792,
				0,
				-2.996234893798828
			],
			"type":"VEC3"
		},
		{
			"bufferView":17,
			"componentType":5126,
			"count":20,
			"type":"VEC3"
		},
		{
			"bufferView":18,
			"componentType":5126,
			"count":20,
			"type":"VEC2"
		},
		{
			"bufferView":19,
			"componentType":5123,
			"count":72,
			"type":"SCALAR"
		},
		{
			"bufferView":20,
			"componentType":5126,
			"count":20,
			"max":[
				1.2273598909378052,
				4,
				1.2273598909378052
			],
			"min":[
				-1.2273598909378052,
				-0.34246179461479187,
				-1.2273598909378052
			],
			"type":"VEC3"
		},
		{
			"bufferView":21,
			"componentType":5126,
			"count":20,
			"type":"VEC3"
		},
		{
			"bufferView":22,
			"componentType":5126,
			"count":20,
			"type":"VEC2"
		},
		{
			"bufferView":23,
			"componentType":5126,
			"count":4,
			"max":[
				0.8504146933555603,
				4,
				0.8504146933555603
			],
			"min":[
				-0.8504146933555603,
				4,
				-0.8504146933555603
			],
			"type":"VEC3"
		},
		{
			"bufferView":24,
			"componentType":5126,
			"count":4,
			"type":"VEC3"
		},
		{
			"bufferView":25,
			"componentType":5126,
			"count":4,
			"type":"VEC2"
		},
		{
			"bufferView":26,
			"componentType":5126,
			"count":36,
			"max":[
				0.6216782927513123,
				4,
				2.4109342098236084
			],
			"min":[
				-2.9155097007751465,
				-0.34246179461479187,
				-1.0068317651748657
			],
			"type":"VEC3"
		},
		{
			"bufferView":27,
			"componentType":5126,
			"count":36,
			"type":"VEC3"
		},
		{
			"bufferView":28,
			"componentType":5126,
			"count":36,
			"type":"VEC2"
		},
		{
			"bufferView":29,
			"componentType":5123,
			"count":66,
			"type":"SCALAR"
		},
		{
			"bufferView":30,
			"componentType":5126,
			"count":8,
			"max":[
				0.21576613187789917,
				4,
				2.0050220489501953
			],
			"min":[
				-2.5095975399017334,
				4,
				-0.6009196043014526
			],
			"type":"VEC3"
		},
		{
			"bufferView":31,
			"componentType":5126,
			"count":8,
			"type":"VEC3"
		},
		{
			"bufferView":32,
			"componentType":5126,
			"count":8,
			"type":"VEC2"
		},
		{
			"bufferView":33,
			"componentType":5123,
			"count":18,
			"type":"SCALAR"
		}
	],
	"bufferViews":[
		{
			"buffer":0,
			"byteLength":192,
			"byteOffset":0,
			"target":34962
		},
		{
			"buffer":0,
			"byteLength":192,
			"byteOffset":192,
			"target":34962
		},
		{
			"buffer":0,
			"byteLength":128,
			"byteOffset":384,
			"target":34962
		},
		{
			"buffer":0,
			"byteLength":48,
			"byteOffset":512,
			"target":34963
		},
		{
			"buffer":0,
			"byteLength":48,
			"byteOffset":560,
			"target":34962
		},
		{
			"buffer":0,
			"byteLength":48,
			"byteOffset":608,
			"target":34962
		},
		{
			"buffer":0,
			"byteLength":32,
			"byteOffset":656,
			"target":34962
		},
		{
			"buffer":0,
			"byteLength":12,
			"byteOffset":688,
			"target":34963
		},
		{
			"buffer":0,
			"byteLength":240,
			"byteOffset":700,
			"target":34962
		},
		{
			"buffer":0,
			"byteLength":240,
			"byteOffset":940,
			"target":34962
		},
		{
			"buffer":0,
			"byteLength":160,
			"byteOffset":1180,
			"target":34962
		},
		{
			"buffer":0,
			"byteLength":60,
			"byteOffset":1340,
			"target":34963
		},
		{
			"buffer":0,
			"byteLength":48,
			"byteOffset":1400,
			"target":34962
		},
		{
			"buffer":0,
			"byteLength":48,
			"byteOffset":1448,
			"target":34962
		},
		{
			"buffer":0,
			"byteLength":32,
			"byteOffset":1496,
			"target":34962
		},
		{
			"buffer":0,
			"byteLength":12,
			"byteOffset":1528,
			"target":34963
		},
		{
			"buffer":0,
			"byteLength":240,
			"byteOffset":1540,
			"target":34962
		},
		{
			"buffer":0,
			"byteLength":240,
			"byteOffset":1780,
			"target":34962
		},
		{
			"buffer":0,
			"byteLength":160,
			"byteOffset":2020,
			"target":34962
		},
		{
			"buffer":0,
			"byteLength":144,
			"byteOffset":2180,
			"target":34963
		},
		{
			"buffer":0,
			"byteLength":240,
			"byteOffset":2324,
			"target":34962
		},
		{
			"buffer":0,
			"byteLength":240,
			"byteOffset":2564,
			"target":34962
		},
		{
			"buffer":0,
			"byteLength":160,
			"byteOffset":2804,
			"target":34962
		},
		{
			"buffer":0,
			"byteLength":48,
			"byteOffset":2964,
			"target":34962
		},
		{
			"buffer":0,
			"byteLength":48,
			"byteOffset":3012,
			"target":34962
		},
		{
			"buffer":0,
			"byteLength":32,
			"byteOffset":3060,
			"target":34962
		},
		{
			"buffer":0,
			"byteLength":432,
			"byteOffset":3092,
			"target":34962
		},
		{
			"buffer":0,
			"byteLength":432,
			"byteOffset":3524,
			"target":34962
		},
		{
			"buffer":0,
			"byteLength":288,
			"byteOffset":3956,
			"target":34962
		},
		{
			"buffer":0,
			"byteLength":132,
			"byteOffset":4244,
			"target":34963
		},
		{
			"buffer":0,
			"byteLength":96,
			"byteOffset":4376,
			"target":34962
		},
		{
			"buffer":0,
			"byteLength":96,
			"byteOffset":4472,
			"target":34962
		},
		{
			"buffer":0,
			"byteLength":64,
			"byteOffset":4568,
			"target":34962
		},
		{
			"buffer":0,
			"byteLength":36,
			"byteOffset":4632,
			"target":34963
		}
	],
	"samplers":[
		{
			"magFilter":9728,
			"minFilter":9984
		}
	],
	"buffers":[
		{
			"byteLength":4668,
			"uri":"sid.bin"
		}
	]
}
