{
	"asset":{
		"generator":"Khronos glTF Blender I/O v4.2.57",
		"version":"2.0"
	},
	"scene":0,
	"scenes":[
		{
			"name":"SLC",
			"nodes":[
				0,
				1,
				2,
				3
			]
		}
	],
	"nodes":[
		{
			"mesh":0,
			"name":"Level.005"
		},
		{
			"mesh":1,
			"name":"NavMesh.002",
			"translation":[
				0,
				0.05312848091125488,
				0
			]
		},
		{
			"mesh":2,
			"name":"Cube.007-col"
		},
		{
			"mesh":3,
			"name":"Cube.001-convcolonly",
			"translation":[
				0,
				0,
				0.09000000357627869
			]
		}
	],
	"materials":[
		{
			"doubleSided":true,
			"name":"Present",
			"normalTexture":{
				"index":0
			},
			"pbrMetallicRoughness":{
				"baseColorTexture":{
					"index":1
				},
				"metallicFactor":0,
				"metallicRoughnessTexture":{
					"index":2
				}
			}
		},
		{
			"alphaMode":"BLEND",
			"doubleSided":true,
			"name":"WoodFloor",
			"normalTexture":{
				"index":3
			},
			"pbrMetallicRoughness":{
				"baseColorTexture":{
					"index":4
				},
				"metallicFactor":0,
				"metallicRoughnessTexture":{
					"index":5
				}
			}
		},
		{
			"doubleSided":true,
			"name":"Material.002"
		}
	],
	"meshes":[
		{
			"name":"Cube.012",
			"primitives":[
				{
					"attributes":{
						"POSITION":0,
						"NORMAL":1,
						"TEXCOORD_0":2
					},
					"indices":3,
					"material":0
				},
				{
					"attributes":{
						"POSITION":4,
						"NORMAL":5,
						"TEXCOORD_0":6
					},
					"indices":7,
					"material":1
				}
			]
		},
		{
			"name":"Cube.014",
			"primitives":[
				{
					"attributes":{
						"POSITION":8,
						"NORMAL":9,
						"TEXCOORD_0":10
					},
					"indices":11
				}
			]
		},
		{
			"name":"Cube.016",
			"primitives":[
				{
					"attributes":{
						"POSITION":12,
						"NORMAL":13,
						"TEXCOORD_0":14
					},
					"indices":15,
					"material":0
				},
				{
					"attributes":{
						"POSITION":16,
						"NORMAL":17,
						"TEXCOORD_0":18
					},
					"indices":19,
					"material":2
				}
			]
		},
		{
			"name":"Cube.027",
			"primitives":[
				{
					"attributes":{
						"POSITION":20,
						"NORMAL":21,
						"TEXCOORD_0":22
					},
					"indices":23
				}
			]
		}
	],
	"textures":[
		{
			"sampler":0,
			"source":0
		},
		{
			"sampler":0,
			"source":1
		},
		{
			"sampler":0,
			"source":2
		},
		{
			"sampler":0,
			"source":3
		},
		{
			"sampler":0,
			"source":4
		},
		{
			"sampler":0,
			"source":5
		}
	],
	"images":[
		{
			"mimeType":"image/png",
			"name":"all 1 Normal",
			"uri":"all%201%20Normal.png"
		},
		{
			"mimeType":"image/png",
			"name":"all 1 Color",
			"uri":"all%201%20Color.png"
		},
		{
			"mimeType":"image/png",
			"name":"all 1 Roughness",
			"uri":"all%201%20Roughness.png"
		},
		{
			"mimeType":"image/png",
			"name":"Middle Ages Floor Normal",
			"uri":"Middle%20Ages%20Floor%20Normal.png"
		},
		{
			"mimeType":"image/png",
			"name":"Middle Ages Floor Color",
			"uri":"Middle%20Ages%20Floor%20Color.png"
		},
		{
			"mimeType":"image/png",
			"name":"Middle Ages Floor Roughness",
			"uri":"Middle%20Ages%20Floor%20Roughness.png"
		}
	],
	"accessors":[
		{
			"bufferView":0,
			"componentType":5126,
			"count":16,
			"max":[
				6.82551383972168,
				4,
				3.798797369003296
			],
			"min":[
				-6.82551383972168,
				0,
				-3.798797369003296
			],
			"type":"VEC3"
		},
		{
			"bufferView":1,
			"componentType":5126,
			"count":16,
			"type":"VEC3"
		},
		{
			"bufferView":2,
			"componentType":5126,
			"count":16,
			"type":"VEC2"
		},
		{
			"bufferView":3,
			"componentType":5123,
			"count":24,
			"type":"SCALAR"
		},
		{
			"bufferView":4,
			"componentType":5126,
			"count":8,
			"max":[
				5.93770170211792,
				0,
				2.996234893798828
			],
			"min":[
				-5.93770170211792,
				0,
				-2.996234893798828
			],
			"type":"VEC3"
		},
		{
			"bufferView":5,
			"componentType":5126,
			"count":8,
			"type":"VEC3"
		},
		{
			"bufferView":6,
			"componentType":5126,
			"count":8,
			"type":"VEC2"
		},
		{
			"bufferView":7,
			"componentType":5123,
			"count":24,
			"type":"SCALAR"
		},
		{
			"bufferView":8,
			"componentType":5126,
			"count":32,
			"max":[
				5.93770170211792,
				0,
				2.996234893798828
			],
			"min":[
				-5.93770170211792,
				0,
				-2.996234893798828
			],
			"type":"VEC3"
		},
		{
			"bufferView":9,
			"componentType":5126,
			"count":32,
			"type":"VEC3"
		},
		{
			"bufferView":10,
			"componentType":5126,
			"count":32,
			"type":"VEC2"
		},
		{
			"bufferView":11,
			"componentType":5123,
			"count":120,
			"type":"SCALAR"
		},
		{
			"bufferView":12,
			"componentType":5126,
			"count":144,
			"max":[
				5.12592887878418,
				4,
				2.2168431282043457
			],
			"min":[
				-5.12592887878418,
				-0.32217830419540405,
				-2.2168431282043457
			],
			"type":"VEC3"
		},
		{
			"bufferView":13,
			"componentType":5126,
			"count":144,
			"type":"VEC3"
		},
		{
			"bufferView":14,
			"componentType":5126,
			"count":144,
			"type":"VEC2"
		},
		{
			"bufferView":15,
			"componentType":5123,
			"count":264,
			"type":"SCALAR"
		},
		{
			"bufferView":16,
			"componentType":5126,
			"count":32,
			"max":[
				4.720016956329346,
				4,
				1.8109307289123535
			],
			"min":[
				-4.720016956329346,
				4,
				-1.8109307289123535
			],
			"type":"VEC3"
		},
		{
			"bufferView":17,
			"componentType":5126,
			"count":32,
			"type":"VEC3"
		},
		{
			"bufferView":18,
			"componentType":5126,
			"count":32,
			"type":"VEC2"
		},
		{
			"bufferView":19,
			"componentType":5123,
			"count":72,
			"type":"SCALAR"
		},
		{
			"bufferView":20,
			"componentType":5126,
			"count":24,
			"max":[
				1.137190341949463,
				4.057644844055176,
				0.3843923807144165
			],
			"min":[
				-1.137190341949463,
				-1,
				-0.564333975315094
			],
			"type":"VEC3"
		},
		{
			"bufferView":21,
			"componentType":5126,
			"count":24,
			"type":"VEC3"
		},
		{
			"bufferView":22,
			"componentType":5126,
			"count":24,
			"type":"VEC2"
		},
		{
			"bufferView":23,
			"componentType":5123,
			"count":36,
			"type":"SCALAR"
		}
	],
	"bufferViews":[
		{
			"buffer":0,
			"byteLength":192,
			"byteOffset":0,
			"target":34962
		},
		{
			"buffer":0,
			"byteLength":192,
			"byteOffset":192,
			"target":34962
		},
		{
			"buffer":0,
			"byteLength":128,
			"byteOffset":384,
			"target":34962
		},
		{
			"buffer":0,
			"byteLength":48,
			"byteOffset":512,
			"target":34963
		},
		{
			"buffer":0,
			"byteLength":96,
			"byteOffset":560,
			"target":34962
		},
		{
			"buffer":0,
			"byteLength":96,
			"byteOffset":656,
			"target":34962
		},
		{
			"buffer":0,
			"byteLength":64,
			"byteOffset":752,
			"target":34962
		},
		{
			"buffer":0,
			"byteLength":48,
			"byteOffset":816,
			"target":34963
		},
		{
			"buffer":0,
			"byteLength":384,
			"byteOffset":864,
			"target":34962
		},
		{
			"buffer":0,
			"byteLength":384,
			"byteOffset":1248,
			"target":34962
		},
		{
			"buffer":0,
			"byteLength":256,
			"byteOffset":1632,
			"target":34962
		},
		{
			"buffer":0,
			"byteLength":240,
			"byteOffset":1888,
			"target":34963
		},
		{
			"buffer":0,
			"byteLength":1728,
			"byteOffset":2128,
			"target":34962
		},
		{
			"buffer":0,
			"byteLength":1728,
			"byteOffset":3856,
			"target":34962
		},
		{
			"buffer":0,
			"byteLength":1152,
			"byteOffset":5584,
			"target":34962
		},
		{
			"buffer":0,
			"byteLength":528,
			"byteOffset":6736,
			"target":34963
		},
		{
			"buffer":0,
			"byteLength":384,
			"byteOffset":7264,
			"target":34962
		},
		{
			"buffer":0,
			"byteLength":384,
			"byteOffset":7648,
			"target":34962
		},
		{
			"buffer":0,
			"byteLength":256,
			"byteOffset":8032,
			"target":34962
		},
		{
			"buffer":0,
			"byteLength":144,
			"byteOffset":8288,
			"target":34963
		},
		{
			"buffer":0,
			"byteLength":288,
			"byteOffset":8432,
			"target":34962
		},
		{
			"buffer":0,
			"byteLength":288,
			"byteOffset":8720,
			"target":34962
		},
		{
			"buffer":0,
			"byteLength":192,
			"byteOffset":9008,
			"target":34962
		},
		{
			"buffer":0,
			"byteLength":72,
			"byteOffset":9200,
			"target":34963
		}
	],
	"samplers":[
		{
			"magFilter":9728,
			"minFilter":9984
		}
	],
	"buffers":[
		{
			"byteLength":9272,
			"uri":"slc.bin"
		}
	]
}
