{
	"asset":{
		"generator":"Khronos glTF Blender I/O v4.1.63",
		"version":"2.0"
	},
	"scene":0,
	"scenes":[
		{
			"name":"Aseprite",
			"nodes":[
				0
			]
		}
	],
	"nodes":[
		{
			"mesh":0,
			"name":"Aseprite"
		}
	],
	"materials":[
		{
			"doubleSided":true,
			"name":"Aseprite",
			"pbrMetallicRoughness":{
				"baseColorTexture":{
					"index":0
				},
				"metallicFactor":0.4685714542865753,
				"roughnessFactor":0.16857144236564636
			}
		},
		{
			"doubleSided":true,
			"name":"AsepriteBorder",
			"pbrMetallicRoughness":{
				"baseColorFactor":[
					0.21585622429847717,
					0.194618359208107,
					0.2622513771057129,
					1
				],
				"metallicFactor":0,
				"roughnessFactor":0.5
			}
		}
	],
	"meshes":[
		{
			"name":"Cube.001",
			"primitives":[
				{
					"attributes":{
						"POSITION":0,
						"NORMAL":1,
						"TEXCOORD_0":2
					},
					"indices":3,
					"material":0
				},
				{
					"attributes":{
						"POSITION":4,
						"NORMAL":5,
						"TEXCOORD_0":6
					},
					"indices":7,
					"material":1
				}
			]
		}
	],
	"textures":[
		{
			"sampler":0,
			"source":0
		}
	],
	"images":[
		{
			"mimeType":"image/png",
			"name":"aseprite",
			"uri":"aseprite.png"
		}
	],
	"accessors":[
		{
			"bufferView":0,
			"componentType":5126,
			"count":56,
			"max":[
				0.5293396711349487,
				0.0463407039642334,
				0.5293396711349487
			],
			"min":[
				-0.5293396711349487,
				-0.0463407039642334,
				-0.5293396711349487
			],
			"type":"VEC3"
		},
		{
			"bufferView":1,
			"componentType":5126,
			"count":56,
			"type":"VEC3"
		},
		{
			"bufferView":2,
			"componentType":5126,
			"count":56,
			"type":"VEC2"
		},
		{
			"bufferView":3,
			"componentType":5123,
			"count":156,
			"type":"SCALAR"
		},
		{
			"bufferView":4,
			"componentType":5126,
			"count":80,
			"max":[
				0.5293396711349487,
				0.0463407039642334,
				0.5293396711349487
			],
			"min":[
				-0.5293396711349487,
				-0.0463407039642334,
				-0.5293396711349487
			],
			"type":"VEC3"
		},
		{
			"bufferView":5,
			"componentType":5126,
			"count":80,
			"type":"VEC3"
		},
		{
			"bufferView":6,
			"componentType":5126,
			"count":80,
			"type":"VEC2"
		},
		{
			"bufferView":7,
			"componentType":5123,
			"count":120,
			"type":"SCALAR"
		}
	],
	"bufferViews":[
		{
			"buffer":0,
			"byteLength":672,
			"byteOffset":0,
			"target":34962
		},
		{
			"buffer":0,
			"byteLength":672,
			"byteOffset":672,
			"target":34962
		},
		{
			"buffer":0,
			"byteLength":448,
			"byteOffset":1344,
			"target":34962
		},
		{
			"buffer":0,
			"byteLength":312,
			"byteOffset":1792,
			"target":34963
		},
		{
			"buffer":0,
			"byteLength":960,
			"byteOffset":2104,
			"target":34962
		},
		{
			"buffer":0,
			"byteLength":960,
			"byteOffset":3064,
			"target":34962
		},
		{
			"buffer":0,
			"byteLength":640,
			"byteOffset":4024,
			"target":34962
		},
		{
			"buffer":0,
			"byteLength":240,
			"byteOffset":4664,
			"target":34963
		}
	],
	"samplers":[
		{
			"magFilter":9729,
			"minFilter":9987
		}
	],
	"buffers":[
		{
			"byteLength":4904,
			"uri":"aseprite.bin"
		}
	]
}
