{
	"asset":{
		"generator":"Khronos glTF Blender I/O v4.1.63",
		"version":"2.0"
	},
	"extensionsUsed":[
		"KHR_materials_sheen"
	],
	"scene":0,
	"scenes":[
		{
			"name":"Scene",
			"nodes":[
				0
			]
		}
	],
	"nodes":[
		{
			"mesh":0,
			"name":"godot_plush_sitted"
		}
	],
	"materials":[
		{
			"doubleSided":true,
			"extensions":{
				"KHR_materials_sheen":{
					"sheenColorFactor":[
						1.0,
						1.0,
						1.0
					],
					"sheenRoughnessFactor":0.4000000059604645
				}
			},
			"name":"godot_plush",
			"normalTexture":{
				"index":0,
				"scale":0.800000011920929
			},
			"pbrMetallicRoughness":{
				"baseColorTexture":{
					"index":1
				},
				"metallicFactor":0,
				"metallicRoughnessTexture":{
					"index":2
				}
			}
		}
	],
	"meshes":[
		{
			"name":"Cube.002",
			"primitives":[
				{
					"attributes":{
						"POSITION":0,
						"NORMAL":1,
						"TEXCOORD_0":2
					},
					"indices":3,
					"material":0
				}
			]
		}
	],
	"textures":[
		{
			"sampler":0,
			"source":0
		},
		{
			"sampler":0,
			"source":1
		},
		{
			"sampler":0,
			"source":2
		}
	],
	"images":[
		{
			"mimeType":"image/png",
			"name":"godot_plush_normal",
			"uri":"godot_plush_normal.png"
		},
		{
			"mimeType":"image/png",
			"name":"godot_plush_basecolor",
			"uri":"godot_plush_basecolor.png"
		},
		{
			"mimeType":"image/png",
			"name":"godot_plush_roughness",
			"uri":"godot_plush_roughness.png"
		}
	],
	"accessors":[
		{
			"bufferView":0,
			"componentType":5126,
			"count":2786,
			"max":[
				0.11109419912099838,
				0.14312224090099335,
				0.07229392975568771
			],
			"min":[
				-0.11143949627876282,
				-0.0025618814397603273,
				-0.08723041415214539
			],
			"type":"VEC3"
		},
		{
			"bufferView":1,
			"componentType":5126,
			"count":2786,
			"type":"VEC3"
		},
		{
			"bufferView":2,
			"componentType":5126,
			"count":2786,
			"type":"VEC2"
		},
		{
			"bufferView":3,
			"componentType":5123,
			"count":12600,
			"type":"SCALAR"
		}
	],
	"bufferViews":[
		{
			"buffer":0,
			"byteLength":33432,
			"byteOffset":0,
			"target":34962
		},
		{
			"buffer":0,
			"byteLength":33432,
			"byteOffset":33432,
			"target":34962
		},
		{
			"buffer":0,
			"byteLength":22288,
			"byteOffset":66864,
			"target":34962
		},
		{
			"buffer":0,
			"byteLength":25200,
			"byteOffset":89152,
			"target":34963
		}
	],
	"samplers":[
		{
			"magFilter":9729,
			"minFilter":9987
		}
	],
	"buffers":[
		{
			"byteLength":114352,
			"uri":"godot.bin"
		}
	]
}
