{
	"asset":{
		"generator":"Khronos glTF Blender I/O v4.1.63",
		"version":"2.0"
	},
	"scene":0,
	"scenes":[
		{
			"name":"Scene",
			"nodes":[
				0,
				1
			]
		}
	],
	"nodes":[
		{
			"mesh":0,
			"name":"Blender-convcol",
			"rotation":[
				0.7071068286895752,
				0,
				0,
				0.7071068286895752
			],
			"scale":[
				4.109583854675293,
				4.109583854675293,
				4.109583854675293
			]
		},
		{
			"mesh":1,
			"name":"BlenderBlue",
			"rotation":[
				0.7071068286895752,
				0,
				0,
				0.7071068286895752
			],
			"scale":[
				4.109583854675293,
				4.109583854675293,
				4.109583854675293
			]
		}
	],
	"materials":[
		{
			"doubleSided":true,
			"name":"SVGMat.004",
			"pbrMetallicRoughness":{
				"baseColorFactor":[
					0.9911020994186401,
					0.15896083414554596,
					0.014443843625485897,
					1
				],
				"metallicFactor":0,
				"roughnessFactor":0.5
			}
		},
		{
			"doubleSided":true,
			"name":"SVGMat.005",
			"pbrMetallicRoughness":{
				"baseColorFactor":[
					0,
					0.08437620848417282,
					0.23074005544185638,
					1
				],
				"metallicFactor":0,
				"roughnessFactor":0.5
			}
		}
	],
	"meshes":[
		{
			"name":"CUpath830.001",
			"primitives":[
				{
					"attributes":{
						"POSITION":0,
						"NORMAL":1
					},
					"indices":2,
					"material":0
				}
			]
		},
		{
			"name":"CUpath830.002",
			"primitives":[
				{
					"attributes":{
						"POSITION":3,
						"NORMAL":4
					},
					"indices":5,
					"material":1
				}
			]
		}
	],
	"accessors":[
		{
			"bufferView":0,
			"componentType":5126,
			"count":319,
			"max":[
				0.10048725455999374,
				0.026953015476465225,
				0.08250537514686584
			],
			"min":[
				-0.10627184063196182,
				-0.026961855590343475,
				-0.09735440462827682
			],
			"type":"VEC3"
		},
		{
			"bufferView":1,
			"componentType":5126,
			"count":319,
			"type":"VEC3"
		},
		{
			"bufferView":2,
			"componentType":5123,
			"count":990,
			"type":"SCALAR"
		},
		{
			"bufferView":3,
			"componentType":5126,
			"count":88,
			"max":[
				0.05745302513241768,
				0.02695123851299286,
				0.03787373751401901
			],
			"min":[
				0.0017308337846770883,
				-0.02695872262120247,
				-0.018628470599651337
			],
			"type":"VEC3"
		},
		{
			"bufferView":4,
			"componentType":5126,
			"count":88,
			"type":"VEC3"
		},
		{
			"bufferView":5,
			"componentType":5123,
			"count":258,
			"type":"SCALAR"
		}
	],
	"bufferViews":[
		{
			"buffer":0,
			"byteLength":3828,
			"byteOffset":0,
			"target":34962
		},
		{
			"buffer":0,
			"byteLength":3828,
			"byteOffset":3828,
			"target":34962
		},
		{
			"buffer":0,
			"byteLength":1980,
			"byteOffset":7656,
			"target":34963
		},
		{
			"buffer":0,
			"byteLength":1056,
			"byteOffset":9636,
			"target":34962
		},
		{
			"buffer":0,
			"byteLength":1056,
			"byteOffset":10692,
			"target":34962
		},
		{
			"buffer":0,
			"byteLength":516,
			"byteOffset":11748,
			"target":34963
		}
	],
	"buffers":[
		{
			"byteLength":12264,
			"uri":"blender.bin"
		}
	]
}
