{
	"asset":{
		"generator":"Khronos glTF Blender I/O v4.2.57",
		"version":"2.0"
	},
	"scene":0,
	"scenes":[
		{
			"name":"Blender",
			"nodes":[
				0,
				1,
				2,
				3,
				4,
				5,
				6,
				7,
				8,
				9,
				10,
				11
			]
		}
	],
	"nodes":[
		{
			"mesh":0,
			"name":"path1273",
			"translation":[
				-0.6539556980133057,
				0,
				0.9215553402900696
			]
		},
		{
			"mesh":1,
			"name":"path1273.001-convcolonly",
			"translation":[
				-0.6539556980133057,
				0,
				1.016875982284546
			]
		},
		{
			"mesh":2,
			"name":"path1275",
			"translation":[
				-0.6539556980133057,
				0,
				0.9215553402900696
			]
		},
		{
			"mesh":3,
			"name":"path1279",
			"translation":[
				-0.6539556980133057,
				0,
				0.9215553402900696
			]
		},
		{
			"mesh":4,
			"name":"path1287",
			"translation":[
				-0.6539556980133057,
				0,
				0.9215553402900696
			]
		},
		{
			"mesh":5,
			"name":"path1291",
			"translation":[
				-0.6539556980133057,
				0,
				0.9215553402900696
			]
		},
		{
			"mesh":6,
			"name":"path1295",
			"translation":[
				-0.6539556980133057,
				0,
				0.9215553402900696
			]
		},
		{
			"mesh":7,
			"name":"path1299",
			"translation":[
				-0.6539556980133057,
				0,
				0.9215553402900696
			]
		},
		{
			"mesh":8,
			"name":"path1309",
			"translation":[
				-0.6539556980133057,
				0,
				0.9215553402900696
			]
		},
		{
			"mesh":9,
			"name":"path1313",
			"translation":[
				-0.6539556980133057,
				0,
				0.9215553402900696
			]
		},
		{
			"mesh":10,
			"name":"path1371",
			"scale":[
				0.9976712465286255,
				1,
				1
			],
			"translation":[
				-0.6539556980133057,
				0,
				0.9215553402900696
			]
		},
		{
			"mesh":11,
			"name":"rect1283",
			"translation":[
				-0.6539556980133057,
				0,
				0.9215553402900696
			]
		}
	],
	"materials":[
		{
			"doubleSided":true,
			"name":"SVGMat.007",
			"pbrMetallicRoughness":{
				"baseColorFactor":[
					1,
					1,
					1,
					1
				],
				"metallicFactor":0,
				"roughnessFactor":0.4000000059604645
			}
		},
		{
			"doubleSided":true,
			"name":"SVGMat.010",
			"pbrMetallicRoughness":{
				"baseColorFactor":[
					0.1946178376674652,
					0.1946178376674652,
					0.1946178376674652,
					1
				],
				"metallicFactor":0,
				"roughnessFactor":0.4000000059604645
			}
		},
		{
			"doubleSided":true,
			"name":"SVGMat.012",
			"pbrMetallicRoughness":{
				"baseColorFactor":[
					0.1946178376674652,
					0.1946178376674652,
					0.1946178376674652,
					1
				],
				"metallicFactor":0,
				"roughnessFactor":0.4000000059604645
			}
		},
		{
			"doubleSided":true,
			"name":"SVGMat.016",
			"pbrMetallicRoughness":{
				"baseColorFactor":[
					0.1946178376674652,
					0.1946178376674652,
					0.1946178376674652,
					1
				],
				"metallicFactor":0,
				"roughnessFactor":0.4000000059604645
			}
		},
		{
			"doubleSided":true,
			"name":"SVGMat.018",
			"pbrMetallicRoughness":{
				"baseColorFactor":[
					0.1946178376674652,
					0.1946178376674652,
					0.1946178376674652,
					1
				],
				"metallicFactor":0,
				"roughnessFactor":0.4000000059604645
			}
		},
		{
			"doubleSided":true,
			"name":"SVGMat.020",
			"pbrMetallicRoughness":{
				"baseColorFactor":[
					0.1946178376674652,
					0.1946178376674652,
					0.1946178376674652,
					1
				],
				"metallicFactor":0,
				"roughnessFactor":0.4000000059604645
			}
		},
		{
			"doubleSided":true,
			"name":"SVGMat.022",
			"pbrMetallicRoughness":{
				"baseColorFactor":[
					0.1946178376674652,
					0.1946178376674652,
					0.1946178376674652,
					1
				],
				"metallicFactor":0,
				"roughnessFactor":0.4000000059604645
			}
		},
		{
			"doubleSided":true,
			"name":"SVGMat.026",
			"pbrMetallicRoughness":{
				"baseColorFactor":[
					0.019382361322641373,
					0.09530746936798096,
					0.24228112399578094,
					1
				],
				"metallicFactor":0,
				"roughnessFactor":0.4000000059604645
			}
		},
		{
			"doubleSided":true,
			"name":"SVGMat.027",
			"pbrMetallicRoughness":{
				"baseColorFactor":[
					0.8069522380828857,
					0.20507873594760895,
					0.004024717025458813,
					1
				],
				"metallicFactor":0,
				"roughnessFactor":0.4000000059604645
			}
		},
		{
			"doubleSided":true,
			"name":"SVGMat.006",
			"pbrMetallicRoughness":{
				"baseColorFactor":[
					0,
					0,
					0,
					1
				],
				"metallicFactor":0,
				"roughnessFactor":0.4000000059604645
			}
		},
		{
			"doubleSided":true,
			"name":"SVGMat.014",
			"pbrMetallicRoughness":{
				"baseColorFactor":[
					0.1946178376674652,
					0.1946178376674652,
					0.1946178376674652,
					1
				],
				"metallicFactor":0,
				"roughnessFactor":0.4000000059604645
			}
		}
	],
	"meshes":[
		{
			"name":"path1273",
			"primitives":[
				{
					"attributes":{
						"POSITION":0,
						"NORMAL":1,
						"TEXCOORD_0":2
					},
					"indices":3,
					"material":0
				}
			]
		},
		{
			"name":"path1273.001",
			"primitives":[
				{
					"attributes":{
						"POSITION":4,
						"NORMAL":5,
						"TEXCOORD_0":6
					},
					"indices":7,
					"material":0
				}
			]
		},
		{
			"name":"path1275",
			"primitives":[
				{
					"attributes":{
						"POSITION":8,
						"NORMAL":9,
						"TEXCOORD_0":10
					},
					"indices":11,
					"material":1
				}
			]
		},
		{
			"name":"path1279",
			"primitives":[
				{
					"attributes":{
						"POSITION":12,
						"NORMAL":13,
						"TEXCOORD_0":14
					},
					"indices":15,
					"material":2
				}
			]
		},
		{
			"name":"path1287",
			"primitives":[
				{
					"attributes":{
						"POSITION":16,
						"NORMAL":17,
						"TEXCOORD_0":18
					},
					"indices":19,
					"material":3
				}
			]
		},
		{
			"name":"path1291",
			"primitives":[
				{
					"attributes":{
						"POSITION":20,
						"NORMAL":21,
						"TEXCOORD_0":22
					},
					"indices":23,
					"material":4
				}
			]
		},
		{
			"name":"path1295",
			"primitives":[
				{
					"attributes":{
						"POSITION":24,
						"NORMAL":25,
						"TEXCOORD_0":26
					},
					"indices":27,
					"material":5
				}
			]
		},
		{
			"name":"path1299",
			"primitives":[
				{
					"attributes":{
						"POSITION":28,
						"NORMAL":29,
						"TEXCOORD_0":30
					},
					"indices":31,
					"material":6
				}
			]
		},
		{
			"name":"path1309",
			"primitives":[
				{
					"attributes":{
						"POSITION":32,
						"NORMAL":33,
						"TEXCOORD_0":34
					},
					"indices":35,
					"material":7
				}
			]
		},
		{
			"name":"path1313",
			"primitives":[
				{
					"attributes":{
						"POSITION":36,
						"NORMAL":37,
						"TEXCOORD_0":38
					},
					"indices":39,
					"material":8
				}
			]
		},
		{
			"name":"path1371",
			"primitives":[
				{
					"attributes":{
						"POSITION":40,
						"NORMAL":41,
						"TEXCOORD_0":42
					},
					"indices":43,
					"material":9
				}
			]
		},
		{
			"name":"rect1283",
			"primitives":[
				{
					"attributes":{
						"POSITION":44,
						"NORMAL":45,
						"TEXCOORD_0":46
					},
					"indices":47,
					"material":10
				}
			]
		}
	],
	"accessors":[
		{
			"bufferView":0,
			"componentType":5126,
			"count":532,
			"max":[
				1.2026668787002563,
				0.01138428132981062,
				-0.17400631308555603
			],
			"min":[
				0.11378367990255356,
				-0.01138428132981062,
				-1.5972023010253906
			],
			"type":"VEC3"
		},
		{
			"bufferView":1,
			"componentType":5126,
			"count":532,
			"type":"VEC3"
		},
		{
			"bufferView":2,
			"componentType":5126,
			"count":532,
			"type":"VEC2"
		},
		{
			"bufferView":3,
			"componentType":5123,
			"count":1572,
			"type":"SCALAR"
		},
		{
			"bufferView":4,
			"componentType":5126,
			"count":71,
			"max":[
				1.2025641202926636,
				0.02613379992544651,
				-0.18439096212387085
			],
			"min":[
				0.1138894110918045,
				-0.02613379992544651,
				-1.6924773454666138
			],
			"type":"VEC3"
		},
		{
			"bufferView":5,
			"componentType":5126,
			"count":71,
			"type":"VEC3"
		},
		{
			"bufferView":6,
			"componentType":5126,
			"count":71,
			"type":"VEC2"
		},
		{
			"bufferView":7,
			"componentType":5123,
			"count":195,
			"type":"SCALAR"
		},
		{
			"bufferView":8,
			"componentType":5126,
			"count":600,
			"max":[
				1.0236027240753174,
				0.02276856265962124,
				-1.3382184505462646
			],
			"min":[
				0.8770884275436401,
				-0.02276856265962124,
				-1.468629002571106
			],
			"type":"VEC3"
		},
		{
			"bufferView":9,
			"componentType":5126,
			"count":600,
			"type":"VEC3"
		},
		{
			"bufferView":10,
			"componentType":5126,
			"count":600,
			"type":"VEC2"
		},
		{
			"bufferView":11,
			"componentType":5123,
			"count":1728,
			"type":"SCALAR"
		},
		{
			"bufferView":12,
			"componentType":5126,
			"count":601,
			"max":[
				0.5620622038841248,
				0.02276856265962124,
				-1.3381479978561401
			],
			"min":[
				0.4155871868133545,
				-0.02276856265962124,
				-1.4685662984848022
			],
			"type":"VEC3"
		},
		{
			"bufferView":13,
			"componentType":5126,
			"count":601,
			"type":"VEC3"
		},
		{
			"bufferView":14,
			"componentType":5126,
			"count":601,
			"type":"VEC2"
		},
		{
			"bufferView":15,
			"componentType":5123,
			"count":1728,
			"type":"SCALAR"
		},
		{
			"bufferView":16,
			"componentType":5126,
			"count":362,
			"max":[
				0.7085840702056885,
				0.02276856265962124,
				-1.3422229290008545
			],
			"min":[
				0.5713949203491211,
				-0.02276856265962124,
				-1.46720552444458
			],
			"type":"VEC3"
		},
		{
			"bufferView":17,
			"componentType":5126,
			"count":362,
			"type":"VEC3"
		},
		{
			"bufferView":18,
			"componentType":5126,
			"count":362,
			"type":"VEC2"
		},
		{
			"bufferView":19,
			"componentType":5123,
			"count":1068,
			"type":"SCALAR"
		},
		{
			"bufferView":20,
			"componentType":5126,
			"count":496,
			"max":[
				0.8678104877471924,
				0.02276856265962124,
				-1.3381479978561401
			],
			"min":[
				0.7179091572761536,
				-0.02276856265962124,
				-1.5053807497024536
			],
			"type":"VEC3"
		},
		{
			"bufferView":21,
			"componentType":5126,
			"count":496,
			"type":"VEC3"
		},
		{
			"bufferView":22,
			"componentType":5126,
			"count":496,
			"type":"VEC2"
		},
		{
			"bufferView":23,
			"componentType":5123,
			"count":1476,
			"type":"SCALAR"
		},
		{
			"bufferView":24,
			"componentType":5126,
			"count":452,
			"max":[
				0.35942691564559937,
				0.02276856265962124,
				-1.3381479978561401
			],
			"min":[
				0.20954087376594543,
				-0.02276856265962124,
				-1.5053807497024536
			],
			"type":"VEC3"
		},
		{
			"bufferView":25,
			"componentType":5126,
			"count":452,
			"type":"VEC3"
		},
		{
			"bufferView":26,
			"componentType":5126,
			"count":452,
			"type":"VEC2"
		},
		{
			"bufferView":27,
			"componentType":5123,
			"count":1344,
			"type":"SCALAR"
		},
		{
			"bufferView":28,
			"componentType":5126,
			"count":306,
			"max":[
				1.1181340217590332,
				0.02276856265962124,
				-1.3422229290008545
			],
			"min":[
				1.0329118967056274,
				-0.02276856265962124,
				-1.468308448791504
			],
			"type":"VEC3"
		},
		{
			"bufferView":29,
			"componentType":5126,
			"count":306,
			"type":"VEC3"
		},
		{
			"bufferView":30,
			"componentType":5126,
			"count":306,
			"type":"VEC2"
		},
		{
			"bufferView":31,
			"componentType":5123,
			"count":900,
			"type":"SCALAR"
		},
		{
			"bufferView":32,
			"componentType":5126,
			"count":386,
			"max":[
				0.9031506776809692,
				0.02276856265962124,
				-0.6972973942756653
			],
			"min":[
				0.6673802733421326,
				-0.02276856265962124,
				-0.9111824631690979
			],
			"type":"VEC3"
		},
		{
			"bufferView":33,
			"componentType":5126,
			"count":386,
			"type":"VEC3"
		},
		{
			"bufferView":34,
			"componentType":5126,
			"count":386,
			"type":"VEC2"
		},
		{
			"bufferView":35,
			"componentType":5123,
			"count":1140,
			"type":"SCALAR"
		},
		{
			"bufferView":36,
			"componentType":5126,
			"count":1877,
			"max":[
				1.0850332975387573,
				0.02276856265962124,
				-0.4994855523109436
			],
			"min":[
				0.21284514665603638,
				-0.02276856265962124,
				-1.2078509330749512
			],
			"type":"VEC3"
		},
		{
			"bufferView":37,
			"componentType":5126,
			"count":1877,
			"type":"VEC3"
		},
		{
			"bufferView":38,
			"componentType":5126,
			"count":1877,
			"type":"VEC2"
		},
		{
			"bufferView":39,
			"componentType":5123,
			"count":5388,
			"type":"SCALAR"
		},
		{
			"bufferView":40,
			"componentType":5126,
			"count":533,
			"max":[
				1.2026668787002563,
				0.00569214066490531,
				-0.11377596110105515
			],
			"min":[
				0.11378367990255356,
				-0.00569214066490531,
				-1.536971926689148
			],
			"type":"VEC3"
		},
		{
			"bufferView":41,
			"componentType":5126,
			"count":533,
			"type":"VEC3"
		},
		{
			"bufferView":42,
			"componentType":5126,
			"count":533,
			"type":"VEC2"
		},
		{
			"bufferView":43,
			"componentType":5123,
			"count":1572,
			"type":"SCALAR"
		},
		{
			"bufferView":44,
			"componentType":5126,
			"count":18,
			"max":[
				0.40627017617225647,
				0.02276856265962124,
				-1.3422229290008545
			],
			"min":[
				0.3687596023082733,
				-0.02276856265962124,
				-1.4956512451171875
			],
			"type":"VEC3"
		},
		{
			"bufferView":45,
			"componentType":5126,
			"count":18,
			"type":"VEC3"
		},
		{
			"bufferView":46,
			"componentType":5126,
			"count":18,
			"type":"VEC2"
		},
		{
			"bufferView":47,
			"componentType":5123,
			"count":36,
			"type":"SCALAR"
		}
	],
	"bufferViews":[
		{
			"buffer":0,
			"byteLength":6384,
			"byteOffset":0,
			"target":34962
		},
		{
			"buffer":0,
			"byteLength":6384,
			"byteOffset":6384,
			"target":34962
		},
		{
			"buffer":0,
			"byteLength":4256,
			"byteOffset":12768,
			"target":34962
		},
		{
			"buffer":0,
			"byteLength":3144,
			"byteOffset":17024,
			"target":34963
		},
		{
			"buffer":0,
			"byteLength":852,
			"byteOffset":20168,
			"target":34962
		},
		{
			"buffer":0,
			"byteLength":852,
			"byteOffset":21020,
			"target":34962
		},
		{
			"buffer":0,
			"byteLength":568,
			"byteOffset":21872,
			"target":34962
		},
		{
			"buffer":0,
			"byteLength":390,
			"byteOffset":22440,
			"target":34963
		},
		{
			"buffer":0,
			"byteLength":7200,
			"byteOffset":22832,
			"target":34962
		},
		{
			"buffer":0,
			"byteLength":7200,
			"byteOffset":30032,
			"target":34962
		},
		{
			"buffer":0,
			"byteLength":4800,
			"byteOffset":37232,
			"target":34962
		},
		{
			"buffer":0,
			"byteLength":3456,
			"byteOffset":42032,
			"target":34963
		},
		{
			"buffer":0,
			"byteLength":7212,
			"byteOffset":45488,
			"target":34962
		},
		{
			"buffer":0,
			"byteLength":7212,
			"byteOffset":52700,
			"target":34962
		},
		{
			"buffer":0,
			"byteLength":4808,
			"byteOffset":59912,
			"target":34962
		},
		{
			"buffer":0,
			"byteLength":3456,
			"byteOffset":64720,
			"target":34963
		},
		{
			"buffer":0,
			"byteLength":4344,
			"byteOffset":68176,
			"target":34962
		},
		{
			"buffer":0,
			"byteLength":4344,
			"byteOffset":72520,
			"target":34962
		},
		{
			"buffer":0,
			"byteLength":2896,
			"byteOffset":76864,
			"target":34962
		},
		{
			"buffer":0,
			"byteLength":2136,
			"byteOffset":79760,
			"target":34963
		},
		{
			"buffer":0,
			"byteLength":5952,
			"byteOffset":81896,
			"target":34962
		},
		{
			"buffer":0,
			"byteLength":5952,
			"byteOffset":87848,
			"target":34962
		},
		{
			"buffer":0,
			"byteLength":3968,
			"byteOffset":93800,
			"target":34962
		},
		{
			"buffer":0,
			"byteLength":2952,
			"byteOffset":97768,
			"target":34963
		},
		{
			"buffer":0,
			"byteLength":5424,
			"byteOffset":100720,
			"target":34962
		},
		{
			"buffer":0,
			"byteLength":5424,
			"byteOffset":106144,
			"target":34962
		},
		{
			"buffer":0,
			"byteLength":3616,
			"byteOffset":111568,
			"target":34962
		},
		{
			"buffer":0,
			"byteLength":2688,
			"byteOffset":115184,
			"target":34963
		},
		{
			"buffer":0,
			"byteLength":3672,
			"byteOffset":117872,
			"target":34962
		},
		{
			"buffer":0,
			"byteLength":3672,
			"byteOffset":121544,
			"target":34962
		},
		{
			"buffer":0,
			"byteLength":2448,
			"byteOffset":125216,
			"target":34962
		},
		{
			"buffer":0,
			"byteLength":1800,
			"byteOffset":127664,
			"target":34963
		},
		{
			"buffer":0,
			"byteLength":4632,
			"byteOffset":129464,
			"target":34962
		},
		{
			"buffer":0,
			"byteLength":4632,
			"byteOffset":134096,
			"target":34962
		},
		{
			"buffer":0,
			"byteLength":3088,
			"byteOffset":138728,
			"target":34962
		},
		{
			"buffer":0,
			"byteLength":2280,
			"byteOffset":141816,
			"target":34963
		},
		{
			"buffer":0,
			"byteLength":22524,
			"byteOffset":144096,
			"target":34962
		},
		{
			"buffer":0,
			"byteLength":22524,
			"byteOffset":166620,
			"target":34962
		},
		{
			"buffer":0,
			"byteLength":15016,
			"byteOffset":189144,
			"target":34962
		},
		{
			"buffer":0,
			"byteLength":10776,
			"byteOffset":204160,
			"target":34963
		},
		{
			"buffer":0,
			"byteLength":6396,
			"byteOffset":214936,
			"target":34962
		},
		{
			"buffer":0,
			"byteLength":6396,
			"byteOffset":221332,
			"target":34962
		},
		{
			"buffer":0,
			"byteLength":4264,
			"byteOffset":227728,
			"target":34962
		},
		{
			"buffer":0,
			"byteLength":3144,
			"byteOffset":231992,
			"target":34963
		},
		{
			"buffer":0,
			"byteLength":216,
			"byteOffset":235136,
			"target":34962
		},
		{
			"buffer":0,
			"byteLength":216,
			"byteOffset":235352,
			"target":34962
		},
		{
			"buffer":0,
			"byteLength":144,
			"byteOffset":235568,
			"target":34962
		},
		{
			"buffer":0,
			"byteLength":72,
			"byteOffset":235712,
			"target":34963
		}
	],
	"buffers":[
		{
			"byteLength":235784,
			"uri":"blender.bin"
		}
	]
}
