{
	"asset":{
		"generator":"Khronos glTF Blender I/O v4.2.57",
		"version":"2.0"
	},
	"scene":0,
	"scenes":[
		{
			"name":"Holmes",
			"nodes":[
				0,
				1,
				2
			]
		}
	],
	"nodes":[
		{
			"mesh":0,
			"name":"Cube.004-convcol.001",
			"rotation":[
				0,
				0.7071068286895752,
				0,
				0.7071068286895752
			],
			"translation":[
				0.010273098945617676,
				0,
				0
			]
		},
		{
			"mesh":1,
			"name":"NavMesh.006",
			"translation":[
				0,
				0.05312848091125488,
				0
			]
		},
		{
			"mesh":2,
			"name":"Level.007"
		}
	],
	"materials":[
		{
			"doubleSided":true,
			"name":"ConcretePrecastPlates004_1K.001",
			"normalTexture":{
				"index":0
			},
			"pbrMetallicRoughness":{
				"baseColorTexture":{
					"index":1
				},
				"metallicFactor":0,
				"metallicRoughnessTexture":{
					"index":2
				}
			}
		},
		{
			"doubleSided":true,
			"name":"Material.002"
		},
		{
			"alphaMode":"BLEND",
			"doubleSided":true,
			"name":"ConcreteBlocksPavingSquareStack001_1K.004",
			"normalTexture":{
				"index":3
			},
			"pbrMetallicRoughness":{
				"baseColorTexture":{
					"index":4
				},
				"metallicFactor":0,
				"metallicRoughnessTexture":{
					"index":5
				}
			}
		}
	],
	"meshes":[
		{
			"name":"Cube.029",
			"primitives":[
				{
					"attributes":{
						"POSITION":0,
						"NORMAL":1,
						"TEXCOORD_0":2
					},
					"indices":3,
					"material":0
				},
				{
					"attributes":{
						"POSITION":4,
						"NORMAL":5,
						"TEXCOORD_0":6
					},
					"indices":7,
					"material":1
				}
			]
		},
		{
			"name":"Cube.030",
			"primitives":[
				{
					"attributes":{
						"POSITION":8,
						"NORMAL":9,
						"TEXCOORD_0":10
					},
					"indices":11
				}
			]
		},
		{
			"name":"Cube.033",
			"primitives":[
				{
					"attributes":{
						"POSITION":12,
						"NORMAL":13,
						"TEXCOORD_0":14
					},
					"indices":15,
					"material":0
				},
				{
					"attributes":{
						"POSITION":16,
						"NORMAL":17,
						"TEXCOORD_0":18
					},
					"indices":19,
					"material":2
				}
			]
		}
	],
	"textures":[
		{
			"sampler":0,
			"source":0
		},
		{
			"sampler":0,
			"source":1
		},
		{
			"sampler":0,
			"source":2
		},
		{
			"sampler":0,
			"source":3
		},
		{
			"sampler":0,
			"source":4
		},
		{
			"sampler":0,
			"source":5
		}
	],
	"images":[
		{
			"mimeType":"image/png",
			"name":"all Normal",
			"uri":"all%20Normal.png"
		},
		{
			"mimeType":"image/png",
			"name":"Present Day Wall Color",
			"uri":"Present%20Day%20Wall%20Color.png"
		},
		{
			"mimeType":"image/png",
			"name":"ughness",
			"uri":"ughness.png"
		},
		{
			"mimeType":"image/png",
			"name":"Middle Ages Floor Normal.png",
			"uri":"Middle%20Ages%20Floor%20Normal_png.png"
		},
		{
			"mimeType":"image/png",
			"name":"Middle Ages Floor Color.png",
			"uri":"Middle%20Ages%20Floor%20Color_png.png"
		},
		{
			"mimeType":"image/png",
			"name":"Middle Ages Floor Roughness.png",
			"uri":"Middle%20Ages%20Floor%20Roughness_png.png"
		}
	],
	"accessors":[
		{
			"bufferView":0,
			"componentType":5126,
			"count":20,
			"max":[
				0.6216784119606018,
				4,
				4.547947406768799
			],
			"min":[
				-0.6216784119606018,
				-0.34246182441711426,
				-4.547947406768799
			],
			"type":"VEC3"
		},
		{
			"bufferView":1,
			"componentType":5126,
			"count":20,
			"type":"VEC3"
		},
		{
			"bufferView":2,
			"componentType":5126,
			"count":20,
			"type":"VEC2"
		},
		{
			"bufferView":3,
			"componentType":5123,
			"count":30,
			"type":"SCALAR"
		},
		{
			"bufferView":4,
			"componentType":5126,
			"count":4,
			"max":[
				0.21576622128486633,
				4,
				3.6348111629486084
			],
			"min":[
				-0.21576622128486633,
				4,
				-3.6348111629486084
			],
			"type":"VEC3"
		},
		{
			"bufferView":5,
			"componentType":5126,
			"count":4,
			"type":"VEC3"
		},
		{
			"bufferView":6,
			"componentType":5126,
			"count":4,
			"type":"VEC2"
		},
		{
			"bufferView":7,
			"componentType":5123,
			"count":6,
			"type":"SCALAR"
		},
		{
			"bufferView":8,
			"componentType":5126,
			"count":8,
			"max":[
				5.93770170211792,
				0,
				2.996234893798828
			],
			"min":[
				-5.93770170211792,
				0,
				-2.996234893798828
			],
			"type":"VEC3"
		},
		{
			"bufferView":9,
			"componentType":5126,
			"count":8,
			"type":"VEC3"
		},
		{
			"bufferView":10,
			"componentType":5126,
			"count":8,
			"type":"VEC2"
		},
		{
			"bufferView":11,
			"componentType":5123,
			"count":24,
			"type":"SCALAR"
		},
		{
			"bufferView":12,
			"componentType":5126,
			"count":16,
			"max":[
				6.82551383972168,
				4,
				3.798797369003296
			],
			"min":[
				-6.82551383972168,
				0,
				-3.798797369003296
			],
			"type":"VEC3"
		},
		{
			"bufferView":13,
			"componentType":5126,
			"count":16,
			"type":"VEC3"
		},
		{
			"bufferView":14,
			"componentType":5126,
			"count":16,
			"type":"VEC2"
		},
		{
			"bufferView":15,
			"componentType":5123,
			"count":24,
			"type":"SCALAR"
		},
		{
			"bufferView":16,
			"componentType":5126,
			"count":4,
			"max":[
				5.93770170211792,
				0,
				2.996234893798828
			],
			"min":[
				-5.93770170211792,
				0,
				-2.996234893798828
			],
			"type":"VEC3"
		},
		{
			"bufferView":17,
			"componentType":5126,
			"count":4,
			"type":"VEC3"
		},
		{
			"bufferView":18,
			"componentType":5126,
			"count":4,
			"type":"VEC2"
		},
		{
			"bufferView":19,
			"componentType":5123,
			"count":6,
			"type":"SCALAR"
		}
	],
	"bufferViews":[
		{
			"buffer":0,
			"byteLength":240,
			"byteOffset":0,
			"target":34962
		},
		{
			"buffer":0,
			"byteLength":240,
			"byteOffset":240,
			"target":34962
		},
		{
			"buffer":0,
			"byteLength":160,
			"byteOffset":480,
			"target":34962
		},
		{
			"buffer":0,
			"byteLength":60,
			"byteOffset":640,
			"target":34963
		},
		{
			"buffer":0,
			"byteLength":48,
			"byteOffset":700,
			"target":34962
		},
		{
			"buffer":0,
			"byteLength":48,
			"byteOffset":748,
			"target":34962
		},
		{
			"buffer":0,
			"byteLength":32,
			"byteOffset":796,
			"target":34962
		},
		{
			"buffer":0,
			"byteLength":12,
			"byteOffset":828,
			"target":34963
		},
		{
			"buffer":0,
			"byteLength":96,
			"byteOffset":840,
			"target":34962
		},
		{
			"buffer":0,
			"byteLength":96,
			"byteOffset":936,
			"target":34962
		},
		{
			"buffer":0,
			"byteLength":64,
			"byteOffset":1032,
			"target":34962
		},
		{
			"buffer":0,
			"byteLength":48,
			"byteOffset":1096,
			"target":34963
		},
		{
			"buffer":0,
			"byteLength":192,
			"byteOffset":1144,
			"target":34962
		},
		{
			"buffer":0,
			"byteLength":192,
			"byteOffset":1336,
			"target":34962
		},
		{
			"buffer":0,
			"byteLength":128,
			"byteOffset":1528,
			"target":34962
		},
		{
			"buffer":0,
			"byteLength":48,
			"byteOffset":1656,
			"target":34963
		},
		{
			"buffer":0,
			"byteLength":48,
			"byteOffset":1704,
			"target":34962
		},
		{
			"buffer":0,
			"byteLength":48,
			"byteOffset":1752,
			"target":34962
		},
		{
			"buffer":0,
			"byteLength":32,
			"byteOffset":1800,
			"target":34962
		},
		{
			"buffer":0,
			"byteLength":12,
			"byteOffset":1832,
			"target":34963
		}
	],
	"samplers":[
		{
			"magFilter":9728,
			"minFilter":9984
		}
	],
	"buffers":[
		{
			"byteLength":1844,
			"uri":"holmes.bin"
		}
	]
}
